<svg width="1536" height="512" viewBox="0 0 1536 512" fill="none" xmlns="http://www.w3.org/2000/svg">
	<g clip-path="url(#clip0_1865_1434)">
		<rect width="1536" height="512" fill="#194D49" />
		<path
			d="M784.336 66.4962L761.406 100.891C760.52 102.22 761.473 104 763.071 104H772.667L748.073 140.891C747.187 142.22 748.14 144 749.737 144H759.334L734.74 180.891C733.854 182.22 734.806 184 736.404 184H746L721.406 220.891C720.52 222.22 721.473 224 723.071 224H732.667L708.073 260.891C707.187 262.22 708.14 264 709.737 264H719.334L694.74 300.891C693.854 302.22 694.806 304 696.404 304H706L681.406 340.891C680.52 342.22 681.473 344 683.07 344H692.667L668.073 380.891C667.187 382.22 668.14 384 669.737 384H902.263C903.861 384 904.814 382.22 903.927 380.891L879.334 344H888.93C890.527 344 891.48 342.22 890.594 340.891L866 304H875.596C877.194 304 878.147 302.22 877.261 300.891L852.667 264H862.263C863.861 264 864.813 262.22 863.927 260.891L839.334 224H848.93C850.527 224 851.48 222.22 850.594 220.891L826 184H835.596C837.194 184 838.147 182.22 837.261 180.891L812.667 144H822.263C823.861 144 824.813 142.22 823.927 140.891L799.334 104H808.93C810.527 104 811.48 102.22 810.594 100.891L787.664 66.4962C786.873 65.3087 785.128 65.3087 784.336 66.4962Z"
			fill="#103D40" />
		<path
			d="M904.336 91.4962L881.406 125.891C880.52 127.22 881.473 129 883.071 129H892.667L868.073 165.891C867.187 167.22 868.14 169 869.737 169H879.334L854.74 205.891C853.854 207.22 854.806 209 856.404 209H866L841.406 245.891C840.52 247.22 841.473 249 843.071 249H852.667L828.073 285.891C827.187 287.22 828.14 289 829.737 289H839.334L814.74 325.891C813.854 327.22 814.806 329 816.404 329H826L801.406 365.891C800.52 367.22 801.473 369 803.07 369H812.667L788.073 405.891C787.187 407.22 788.14 409 789.737 409H1022.26C1023.86 409 1024.81 407.22 1023.93 405.891L999.334 369H1008.93C1010.53 369 1011.48 367.22 1010.59 365.891L986 329H995.596C997.194 329 998.147 327.22 997.261 325.891L972.667 289H982.263C983.861 289 984.813 287.22 983.927 285.891L959.334 249H968.93C970.527 249 971.48 247.22 970.594 245.891L946 209H955.596C957.194 209 958.147 207.22 957.261 205.891L932.667 169H942.263C943.861 169 944.813 167.22 943.927 165.891L919.334 129H928.93C930.527 129 931.48 127.22 930.594 125.891L907.664 91.4962C906.873 90.3087 905.128 90.3087 904.336 91.4962Z"
			fill="#103D40" />
		<path
			d="M1024.34 76.4962L1001.41 110.891C1000.52 112.22 1001.47 114 1003.07 114H1012.67L988.073 150.891C987.187 152.22 988.14 154 989.737 154H999.334L974.74 190.891C973.854 192.22 974.806 194 976.404 194H986L961.406 230.891C960.52 232.22 961.473 234 963.071 234H972.667L948.073 270.891C947.187 272.22 948.14 274 949.737 274H959.334L934.74 310.891C933.854 312.22 934.806 314 936.404 314H946L921.406 350.891C920.52 352.22 921.473 354 923.07 354H932.667L908.073 390.891C907.187 392.22 908.14 394 909.737 394H1142.26C1143.86 394 1144.81 392.22 1143.93 390.891L1119.33 354H1128.93C1130.53 354 1131.48 352.22 1130.59 350.891L1106 314H1115.6C1117.19 314 1118.15 312.22 1117.26 310.891L1092.67 274H1102.26C1103.86 274 1104.81 272.22 1103.93 270.891L1079.33 234H1088.93C1090.53 234 1091.48 232.22 1090.59 230.891L1066 194H1075.6C1077.19 194 1078.15 192.22 1077.26 190.891L1052.67 154H1062.26C1063.86 154 1064.81 152.22 1063.93 150.891L1039.33 114H1048.93C1050.53 114 1051.48 112.22 1050.59 110.891L1027.66 76.4962C1026.87 75.3087 1025.13 75.3087 1024.34 76.4962Z"
			fill="#103D40" />
		<path
			d="M1118.34 108.496L1095.41 142.891C1094.52 144.22 1095.47 146 1097.07 146H1106.67L1082.07 182.891C1081.19 184.22 1082.14 186 1083.74 186H1093.33L1068.74 222.891C1067.85 224.22 1068.81 226 1070.4 226H1080L1055.41 262.891C1054.52 264.22 1055.47 266 1057.07 266H1066.67L1042.07 302.891C1041.19 304.22 1042.14 306 1043.74 306H1053.33L1028.74 342.891C1027.85 344.22 1028.81 346 1030.4 346H1040L1015.41 382.891C1014.52 384.22 1015.47 386 1017.07 386H1026.67L1002.07 422.891C1001.19 424.22 1002.14 426 1003.74 426H1236.26C1237.86 426 1238.81 424.22 1237.93 422.891L1213.33 386H1222.93C1224.53 386 1225.48 384.22 1224.59 382.891L1200 346H1209.6C1211.19 346 1212.15 344.22 1211.26 342.891L1186.67 306H1196.26C1197.86 306 1198.81 304.22 1197.93 302.891L1173.33 266H1182.93C1184.53 266 1185.48 264.22 1184.59 262.891L1160 226H1169.6C1171.19 226 1172.15 224.22 1171.26 222.891L1146.67 186H1156.26C1157.86 186 1158.81 184.22 1157.93 182.891L1133.33 146H1142.93C1144.53 146 1145.48 144.22 1144.59 142.891L1121.66 108.496C1120.87 107.309 1119.13 107.309 1118.34 108.496Z"
			fill="#103D40" />
		<path
			d="M1306.34 91.4962L1283.41 125.891C1282.52 127.22 1283.47 129 1285.07 129H1294.67L1270.07 165.891C1269.19 167.22 1270.14 169 1271.74 169H1281.33L1256.74 205.891C1255.85 207.22 1256.81 209 1258.4 209H1268L1243.41 245.891C1242.52 247.22 1243.47 249 1245.07 249H1254.67L1230.07 285.891C1229.19 287.22 1230.14 289 1231.74 289H1241.33L1216.74 325.891C1215.85 327.22 1216.81 329 1218.4 329H1228L1203.41 365.891C1202.52 367.22 1203.47 369 1205.07 369H1214.67L1190.07 405.891C1189.19 407.22 1190.14 409 1191.74 409H1424.26C1425.86 409 1426.81 407.22 1425.93 405.891L1401.33 369H1410.93C1412.53 369 1413.48 367.22 1412.59 365.891L1388 329H1397.6C1399.19 329 1400.15 327.22 1399.26 325.891L1374.67 289H1384.26C1385.86 289 1386.81 287.22 1385.93 285.891L1361.33 249H1370.93C1372.53 249 1373.48 247.22 1372.59 245.891L1348 209H1357.6C1359.19 209 1360.15 207.22 1359.26 205.891L1334.67 169H1344.26C1345.86 169 1346.81 167.22 1345.93 165.891L1321.33 129H1330.93C1332.53 129 1333.48 127.22 1332.59 125.891L1309.66 91.4962C1308.87 90.3087 1307.13 90.3087 1306.34 91.4962Z"
			fill="#103D40" />
		<path
			d="M1210.34 91.4962L1187.41 125.891C1186.52 127.22 1187.47 129 1189.07 129H1198.67L1174.07 165.891C1173.19 167.22 1174.14 169 1175.74 169H1185.33L1160.74 205.891C1159.85 207.22 1160.81 209 1162.4 209H1172L1147.41 245.891C1146.52 247.22 1147.47 249 1149.07 249H1158.67L1134.07 285.891C1133.19 287.22 1134.14 289 1135.74 289H1145.33L1120.74 325.891C1119.85 327.22 1120.81 329 1122.4 329H1132L1107.41 365.891C1106.52 367.22 1107.47 369 1109.07 369H1118.67L1094.07 405.891C1093.19 407.22 1094.14 409 1095.74 409H1328.26C1329.86 409 1330.81 407.22 1329.93 405.891L1305.33 369H1314.93C1316.53 369 1317.48 367.22 1316.59 365.891L1292 329H1301.6C1303.19 329 1304.15 327.22 1303.26 325.891L1278.67 289H1288.26C1289.86 289 1290.81 287.22 1289.93 285.891L1265.33 249H1274.93C1276.53 249 1277.48 247.22 1276.59 245.891L1252 209H1261.6C1263.19 209 1264.15 207.22 1263.26 205.891L1238.67 169H1248.26C1249.86 169 1250.81 167.22 1249.93 165.891L1225.33 129H1234.93C1236.53 129 1237.48 127.22 1236.59 125.891L1213.66 91.4962C1212.87 90.3087 1211.13 90.3087 1210.34 91.4962Z"
			fill="#103D40" />
		<path
			d="M1397.34 98.4962L1374.41 132.891C1373.52 134.22 1374.47 136 1376.07 136H1385.67L1361.07 172.891C1360.19 174.22 1361.14 176 1362.74 176H1372.33L1347.74 212.891C1346.85 214.22 1347.81 216 1349.4 216H1359L1334.41 252.891C1333.52 254.22 1334.47 256 1336.07 256H1345.67L1321.07 292.891C1320.19 294.22 1321.14 296 1322.74 296H1332.33L1307.74 332.891C1306.85 334.22 1307.81 336 1309.4 336H1319L1294.41 372.891C1293.52 374.22 1294.47 376 1296.07 376H1305.67L1281.07 412.891C1280.19 414.22 1281.14 416 1282.74 416H1515.26C1516.86 416 1517.81 414.22 1516.93 412.891L1492.33 376H1501.93C1503.53 376 1504.48 374.22 1503.59 372.891L1479 336H1488.6C1490.19 336 1491.15 334.22 1490.26 332.891L1465.67 296H1475.26C1476.86 296 1477.81 294.22 1476.93 292.891L1452.33 256H1461.93C1463.53 256 1464.48 254.22 1463.59 252.891L1439 216H1448.6C1450.19 216 1451.15 214.22 1450.26 212.891L1425.67 176H1435.26C1436.86 176 1437.81 174.22 1436.93 172.891L1412.33 136H1421.93C1423.53 136 1424.48 134.22 1423.59 132.891L1400.66 98.4962C1399.87 97.3087 1398.13 97.3087 1397.34 98.4962Z"
			fill="#103D40" />
		<path
			d="M1491.34 116.496L1468.41 150.891C1467.52 152.22 1468.47 154 1470.07 154H1479.67L1455.07 190.891C1454.19 192.22 1455.14 194 1456.74 194H1466.33L1441.74 230.891C1440.85 232.22 1441.81 234 1443.4 234H1453L1428.41 270.891C1427.52 272.22 1428.47 274 1430.07 274H1439.67L1415.07 310.891C1414.19 312.22 1415.14 314 1416.74 314H1426.33L1401.74 350.891C1400.85 352.22 1401.81 354 1403.4 354H1413L1388.41 390.891C1387.52 392.22 1388.47 394 1390.07 394H1399.67L1375.07 430.891C1374.19 432.22 1375.14 434 1376.74 434H1609.26C1610.86 434 1611.81 432.22 1610.93 430.891L1586.33 394H1595.93C1597.53 394 1598.48 392.22 1597.59 390.891L1573 354H1582.6C1584.19 354 1585.15 352.22 1584.26 350.891L1559.67 314H1569.26C1570.86 314 1571.81 312.22 1570.93 310.891L1546.33 274H1555.93C1557.53 274 1558.48 272.22 1557.59 270.891L1533 234H1542.6C1544.19 234 1545.15 232.22 1544.26 230.891L1519.67 194H1529.26C1530.86 194 1531.81 192.22 1530.93 190.891L1506.33 154H1515.93C1517.53 154 1518.48 152.22 1517.59 150.891L1494.66 116.496C1493.87 115.309 1492.13 115.309 1491.34 116.496Z"
			fill="#103D40" />
		<path
			d="M668.336 91.4962L645.406 125.891C644.52 127.22 645.473 129 647.071 129H656.667L632.073 165.891C631.187 167.22 632.14 169 633.737 169H643.334L618.74 205.891C617.854 207.22 618.806 209 620.404 209H630L605.406 245.891C604.52 247.22 605.473 249 607.071 249H616.667L592.073 285.891C591.187 287.22 592.14 289 593.737 289H603.334L578.74 325.891C577.854 327.22 578.806 329 580.404 329H590L565.406 365.891C564.52 367.22 565.473 369 567.07 369H576.667L552.073 405.891C551.187 407.22 552.14 409 553.737 409H786.263C787.861 409 788.814 407.22 787.927 405.891L763.334 369H772.93C774.527 369 775.48 367.22 774.594 365.891L750 329H759.596C761.194 329 762.147 327.22 761.261 325.891L736.667 289H746.263C747.861 289 748.813 287.22 747.927 285.891L723.334 249H732.93C734.527 249 735.48 247.22 734.594 245.891L710 209H719.596C721.194 209 722.147 207.22 721.261 205.891L696.667 169H706.263C707.861 169 708.813 167.22 707.927 165.891L683.334 129H692.93C694.527 129 695.48 127.22 694.594 125.891L671.664 91.4962C670.873 90.3087 669.128 90.3087 668.336 91.4962Z"
			fill="#103D40" />
		<path
			d="M579.336 108.496L556.406 142.891C555.52 144.22 556.473 146 558.071 146H567.667L543.073 182.891C542.187 184.22 543.14 186 544.737 186H554.334L529.74 222.891C528.854 224.22 529.806 226 531.404 226H541L516.406 262.891C515.52 264.22 516.473 266 518.071 266H527.667L503.073 302.891C502.187 304.22 503.14 306 504.737 306H514.334L489.74 342.891C488.854 344.22 489.806 346 491.404 346H501L476.406 382.891C475.52 384.22 476.473 386 478.07 386H487.667L463.073 422.891C462.187 424.22 463.14 426 464.737 426H697.263C698.861 426 699.814 424.22 698.927 422.891L674.334 386H683.93C685.527 386 686.48 384.22 685.594 382.891L661 346H670.596C672.194 346 673.147 344.22 672.261 342.891L647.667 306H657.263C658.861 306 659.813 304.22 658.927 302.891L634.334 266H643.93C645.527 266 646.48 264.22 645.594 262.891L621 226H630.596C632.194 226 633.147 224.22 632.261 222.891L607.667 186H617.263C618.861 186 619.813 184.22 618.927 182.891L594.334 146H603.93C605.527 146 606.48 144.22 605.594 142.891L582.664 108.496C581.873 107.309 580.128 107.309 579.336 108.496Z"
			fill="#103D40" />
		<path
			d="M498.336 80.4962L475.406 114.891C474.52 116.22 475.473 118 477.071 118H486.667L462.073 154.891C461.187 156.22 462.14 158 463.737 158H473.334L448.74 194.891C447.854 196.22 448.806 198 450.404 198H460L435.406 234.891C434.52 236.22 435.473 238 437.071 238H446.667L422.073 274.891C421.187 276.22 422.14 278 423.737 278H433.334L408.74 314.891C407.854 316.22 408.806 318 410.404 318H420L395.406 354.891C394.52 356.22 395.473 358 397.07 358H406.667L382.073 394.891C381.187 396.22 382.14 398 383.737 398H616.263C617.861 398 618.814 396.22 617.927 394.891L593.334 358H602.93C604.527 358 605.48 356.22 604.594 354.891L580 318H589.596C591.194 318 592.147 316.22 591.261 314.891L566.667 278H576.263C577.861 278 578.813 276.22 577.927 274.891L553.334 238H562.93C564.527 238 565.48 236.22 564.594 234.891L540 198H549.596C551.194 198 552.147 196.22 551.261 194.891L526.667 158H536.263C537.861 158 538.813 156.22 537.927 154.891L513.334 118H522.93C524.527 118 525.48 116.22 524.594 114.891L501.664 80.4962C500.873 79.3087 499.128 79.3087 498.336 80.4962Z"
			fill="#103D40" />
		<path
			d="M418.336 98.4962L395.406 132.891C394.52 134.22 395.473 136 397.071 136H406.667L382.073 172.891C381.187 174.22 382.14 176 383.737 176H393.334L368.74 212.891C367.854 214.22 368.806 216 370.404 216H380L355.406 252.891C354.52 254.22 355.473 256 357.071 256H366.667L342.073 292.891C341.187 294.22 342.14 296 343.737 296H353.334L328.74 332.891C327.854 334.22 328.806 336 330.404 336H340L315.406 372.891C314.52 374.22 315.473 376 317.07 376H326.667L302.073 412.891C301.187 414.22 302.14 416 303.737 416H536.263C537.861 416 538.814 414.22 537.927 412.891L513.334 376H522.93C524.527 376 525.48 374.22 524.594 372.891L500 336H509.596C511.194 336 512.147 334.22 511.261 332.891L486.667 296H496.263C497.861 296 498.813 294.22 497.927 292.891L473.334 256H482.93C484.527 256 485.48 254.22 484.594 252.891L460 216H469.596C471.194 216 472.147 214.22 471.261 212.891L446.667 176H456.263C457.861 176 458.813 174.22 457.927 172.891L433.334 136H442.93C444.527 136 445.48 134.22 444.594 132.891L421.664 98.4962C420.873 97.3087 419.128 97.3087 418.336 98.4962Z"
			fill="#103D40" />
		<path
			d="M350.336 91.4962L327.406 125.891C326.52 127.22 327.473 129 329.071 129H338.667L314.073 165.891C313.187 167.22 314.14 169 315.737 169H325.334L300.74 205.891C299.854 207.22 300.806 209 302.404 209H312L287.406 245.891C286.52 247.22 287.473 249 289.071 249H298.667L274.073 285.891C273.187 287.22 274.14 289 275.737 289H285.334L260.74 325.891C259.854 327.22 260.806 329 262.404 329H272L247.406 365.891C246.52 367.22 247.473 369 249.07 369H258.667L234.073 405.891C233.187 407.22 234.14 409 235.737 409H468.263C469.861 409 470.814 407.22 469.927 405.891L445.334 369H454.93C456.527 369 457.48 367.22 456.594 365.891L432 329H441.596C443.194 329 444.147 327.22 443.261 325.891L418.667 289H428.263C429.861 289 430.813 287.22 429.927 285.891L405.334 249H414.93C416.527 249 417.48 247.22 416.594 245.891L392 209H401.596C403.194 209 404.147 207.22 403.261 205.891L378.667 169H388.263C389.861 169 390.813 167.22 389.927 165.891L365.334 129H374.93C376.527 129 377.48 127.22 376.594 125.891L353.664 91.4962C352.873 90.3087 351.128 90.3087 350.336 91.4962Z"
			fill="#103D40" />
		<path
			d="M252.336 80.4962L229.406 114.891C228.52 116.22 229.473 118 231.071 118H240.667L216.073 154.891C215.187 156.22 216.14 158 217.737 158H227.334L202.74 194.891C201.854 196.22 202.806 198 204.404 198H214L189.406 234.891C188.52 236.22 189.473 238 191.071 238H200.667L176.073 274.891C175.187 276.22 176.14 278 177.737 278H187.334L162.74 314.891C161.854 316.22 162.806 318 164.404 318H174L149.406 354.891C148.52 356.22 149.473 358 151.07 358H160.667L136.073 394.891C135.187 396.22 136.14 398 137.737 398H370.263C371.861 398 372.814 396.22 371.927 394.891L347.334 358H356.93C358.527 358 359.48 356.22 358.594 354.891L334 318H343.596C345.194 318 346.147 316.22 345.261 314.891L320.667 278H330.263C331.861 278 332.813 276.22 331.927 274.891L307.334 238H316.93C318.527 238 319.48 236.22 318.594 234.891L294 198H303.596C305.194 198 306.147 196.22 305.261 194.891L280.667 158H290.263C291.861 158 292.813 156.22 291.927 154.891L267.334 118H276.93C278.527 118 279.48 116.22 278.594 114.891L255.664 80.4962C254.873 79.3087 253.128 79.3087 252.336 80.4962Z"
			fill="#103D40" />
		<path
			d="M151.336 91.4962L128.406 125.891C127.52 127.22 128.473 129 130.071 129H139.667L115.073 165.891C114.187 167.22 115.14 169 116.737 169H126.334L101.74 205.891C100.854 207.22 101.806 209 103.404 209H113L88.4065 245.891C87.5204 247.22 88.4732 249 90.0706 249H99.6669L75.0731 285.891C74.187 287.22 75.1398 289 76.7372 289H86.3335L61.7398 325.891C60.8537 327.22 61.8065 329 63.4039 329H73.0001L48.4064 365.891C47.5203 367.22 48.4731 369 50.0705 369H59.6667L35.0729 405.891C34.1869 407.22 35.1396 409 36.737 409H269.263C270.861 409 271.814 407.22 270.927 405.891L246.334 369H255.93C257.527 369 258.48 367.22 257.594 365.891L233 329H242.596C244.194 329 245.147 327.22 244.261 325.891L219.667 289H229.263C230.861 289 231.813 287.22 230.927 285.891L206.334 249H215.93C217.527 249 218.48 247.22 217.594 245.891L193 209H202.596C204.194 209 205.147 207.22 204.261 205.891L179.667 169H189.263C190.861 169 191.813 167.22 190.927 165.891L166.334 129H175.93C177.527 129 178.48 127.22 177.594 125.891L154.664 91.4962C153.873 90.3087 152.128 90.3087 151.336 91.4962Z"
			fill="#103D40" />
		<path
			d="M53.3361 57.4962L30.4065 91.8906C29.5204 93.2197 30.4732 95 32.0706 95H41.6669L17.0731 131.891C16.1871 133.22 17.1398 135 18.7372 135H28.3335L3.73979 171.891C2.85371 173.22 3.8065 175 5.40389 175H15.0002L-9.59354 211.891C-10.4796 213.22 -9.52684 215 -7.92945 215H1.66685L-22.9269 251.891C-23.813 253.22 -22.8602 255 -21.2628 255H-11.6665L-36.2602 291.891C-37.1463 293.22 -36.1935 295 -34.5961 295H-24.9999L-49.5936 331.891C-50.4797 333.22 -49.5269 335 -47.9295 335H-38.3333L-62.9271 371.891C-63.8131 373.22 -62.8604 375 -61.263 375H171.263C172.861 375 173.814 373.22 172.927 371.891L148.334 335H157.93C159.527 335 160.48 333.22 159.594 331.891L135 295H144.596C146.194 295 147.147 293.22 146.261 291.891L121.667 255H131.263C132.861 255 133.813 253.22 132.927 251.891L108.334 215H117.93C119.527 215 120.48 213.22 119.594 211.891L95.0002 175H104.596C106.194 175 107.147 173.22 106.261 171.891L81.6669 135H91.2632C92.8605 135 93.8133 133.22 92.9273 131.891L68.3336 95H77.9298C79.5272 95 80.48 93.2197 79.5939 91.8906L56.6643 57.4962C55.8727 56.3087 54.1277 56.3087 53.3361 57.4962Z"
			fill="#103D40" />
		<path
			d="M971.336 196.496L948.406 230.891C947.52 232.22 948.473 234 950.071 234H959.667L935.073 270.891C934.187 272.22 935.14 274 936.737 274H946.334L921.74 310.891C920.854 312.22 921.806 314 923.404 314H933L908.406 350.891C907.52 352.22 908.473 354 910.071 354H919.667L895.073 390.891C894.187 392.22 895.14 394 896.737 394H906.334L881.74 430.891C880.854 432.22 881.806 434 883.404 434H893L868.406 470.891C867.52 472.22 868.473 474 870.07 474H879.667L855.073 510.891C854.187 512.22 855.14 514 856.737 514H1089.26C1090.86 514 1091.81 512.22 1090.93 510.891L1066.33 474H1075.93C1077.53 474 1078.48 472.22 1077.59 470.891L1053 434H1062.6C1064.19 434 1065.15 432.22 1064.26 430.891L1039.67 394H1049.26C1050.86 394 1051.81 392.22 1050.93 390.891L1026.33 354H1035.93C1037.53 354 1038.48 352.22 1037.59 350.891L1013 314H1022.6C1024.19 314 1025.15 312.22 1024.26 310.891L999.667 274H1009.26C1010.86 274 1011.81 272.22 1010.93 270.891L986.334 234H995.93C997.527 234 998.48 232.22 997.594 230.891L974.664 196.496C973.873 195.309 972.128 195.309 971.336 196.496Z"
			fill="#0B3239" />
		<path
			d="M825.336 188.496L802.406 222.891C801.52 224.22 802.473 226 804.071 226H813.667L789.073 262.891C788.187 264.22 789.14 266 790.737 266H800.334L775.74 302.891C774.854 304.22 775.806 306 777.404 306H787L762.406 342.891C761.52 344.22 762.473 346 764.071 346H773.667L749.073 382.891C748.187 384.22 749.14 386 750.737 386H760.334L735.74 422.891C734.854 424.22 735.806 426 737.404 426H747L722.406 462.891C721.52 464.22 722.473 466 724.07 466H733.667L709.073 502.891C708.187 504.22 709.14 506 710.737 506H943.263C944.861 506 945.814 504.22 944.927 502.891L920.334 466H929.93C931.527 466 932.48 464.22 931.594 462.891L907 426H916.596C918.194 426 919.147 424.22 918.261 422.891L893.667 386H903.263C904.861 386 905.813 384.22 904.927 382.891L880.334 346H889.93C891.527 346 892.48 344.22 891.594 342.891L867 306H876.596C878.194 306 879.147 304.22 878.261 302.891L853.667 266H863.263C864.861 266 865.813 264.22 864.927 262.891L840.334 226H849.93C851.527 226 852.48 224.22 851.594 222.891L828.664 188.496C827.873 187.309 826.128 187.309 825.336 188.496Z"
			fill="#0B3239" />
		<path
			d="M742.336 178.496L719.406 212.891C718.52 214.22 719.473 216 721.071 216H730.667L706.073 252.891C705.187 254.22 706.14 256 707.737 256H717.334L692.74 292.891C691.854 294.22 692.806 296 694.404 296H704L679.406 332.891C678.52 334.22 679.473 336 681.071 336H690.667L666.073 372.891C665.187 374.22 666.14 376 667.737 376H677.334L652.74 412.891C651.854 414.22 652.806 416 654.404 416H664L639.406 452.891C638.52 454.22 639.473 456 641.07 456H650.667L626.073 492.891C625.187 494.22 626.14 496 627.737 496H860.263C861.861 496 862.814 494.22 861.927 492.891L837.334 456H846.93C848.527 456 849.48 454.22 848.594 452.891L824 416H833.596C835.194 416 836.147 414.22 835.261 412.891L810.667 376H820.263C821.861 376 822.813 374.22 821.927 372.891L797.334 336H806.93C808.527 336 809.48 334.22 808.594 332.891L784 296H793.596C795.194 296 796.147 294.22 795.261 292.891L770.667 256H780.263C781.861 256 782.813 254.22 781.927 252.891L757.334 216H766.93C768.527 216 769.48 214.22 768.594 212.891L745.664 178.496C744.873 177.309 743.128 177.309 742.336 178.496Z"
			fill="#0B3239" />
		<path
			d="M548.336 188.496L525.406 222.891C524.52 224.22 525.473 226 527.071 226H536.667L512.073 262.891C511.187 264.22 512.14 266 513.737 266H523.334L498.74 302.891C497.854 304.22 498.806 306 500.404 306H510L485.406 342.891C484.52 344.22 485.473 346 487.071 346H496.667L472.073 382.891C471.187 384.22 472.14 386 473.737 386H483.334L458.74 422.891C457.854 424.22 458.806 426 460.404 426H470L445.406 462.891C444.52 464.22 445.473 466 447.07 466H456.667L432.073 502.891C431.187 504.22 432.14 506 433.737 506H666.263C667.861 506 668.814 504.22 667.927 502.891L643.334 466H652.93C654.527 466 655.48 464.22 654.594 462.891L630 426H639.596C641.194 426 642.147 424.22 641.261 422.891L616.667 386H626.263C627.861 386 628.813 384.22 627.927 382.891L603.334 346H612.93C614.527 346 615.48 344.22 614.594 342.891L590 306H599.596C601.194 306 602.147 304.22 601.261 302.891L576.667 266H586.263C587.861 266 588.813 264.22 587.927 262.891L563.334 226H572.93C574.527 226 575.48 224.22 574.594 222.891L551.664 188.496C550.873 187.309 549.128 187.309 548.336 188.496Z"
			fill="#0B3239" />
		<path
			d="M377.336 163.496L354.406 197.891C353.52 199.22 354.473 201 356.071 201H365.667L341.073 237.891C340.187 239.22 341.14 241 342.737 241H352.334L327.74 277.891C326.854 279.22 327.806 281 329.404 281H339L314.406 317.891C313.52 319.22 314.473 321 316.071 321H325.667L301.073 357.891C300.187 359.22 301.14 361 302.737 361H312.334L287.74 397.891C286.854 399.22 287.806 401 289.404 401H299L274.406 437.891C273.52 439.22 274.473 441 276.07 441H285.667L261.073 477.891C260.187 479.22 261.14 481 262.737 481H495.263C496.861 481 497.814 479.22 496.927 477.891L472.334 441H481.93C483.527 441 484.48 439.22 483.594 437.891L459 401H468.596C470.194 401 471.147 399.22 470.261 397.891L445.667 361H455.263C456.861 361 457.813 359.22 456.927 357.891L432.334 321H441.93C443.527 321 444.48 319.22 443.594 317.891L419 281H428.596C430.194 281 431.147 279.22 430.261 277.891L405.667 241H415.263C416.861 241 417.813 239.22 416.927 237.891L392.334 201H401.93C403.527 201 404.48 199.22 403.594 197.891L380.664 163.496C379.873 162.309 378.128 162.309 377.336 163.496Z"
			fill="#0B3239" />
		<path
			d="M211.336 163.496L188.406 197.891C187.52 199.22 188.473 201 190.071 201H199.667L175.073 237.891C174.187 239.22 175.14 241 176.737 241H186.334L161.74 277.891C160.854 279.22 161.806 281 163.404 281H173L148.406 317.891C147.52 319.22 148.473 321 150.071 321H159.667L135.073 357.891C134.187 359.22 135.14 361 136.737 361H146.334L121.74 397.891C120.854 399.22 121.806 401 123.404 401H133L108.406 437.891C107.52 439.22 108.473 441 110.07 441H119.667L95.0729 477.891C94.1869 479.22 95.1396 481 96.737 481H329.263C330.861 481 331.814 479.22 330.927 477.891L306.334 441H315.93C317.527 441 318.48 439.22 317.594 437.891L293 401H302.596C304.194 401 305.147 399.22 304.261 397.891L279.667 361H289.263C290.861 361 291.813 359.22 290.927 357.891L266.334 321H275.93C277.527 321 278.48 319.22 277.594 317.891L253 281H262.596C264.194 281 265.147 279.22 264.261 277.891L239.667 241H249.263C250.861 241 251.813 239.22 250.927 237.891L226.334 201H235.93C237.527 201 238.48 199.22 237.594 197.891L214.664 163.496C213.873 162.309 212.128 162.309 211.336 163.496Z"
			fill="#0B3239" />
		<path
			d="M283.336 236.496L260.406 270.891C259.52 272.22 260.473 274 262.071 274H271.667L247.073 310.891C246.187 312.22 247.14 314 248.737 314H258.334L233.74 350.891C232.854 352.22 233.806 354 235.404 354H245L220.406 390.891C219.52 392.22 220.473 394 222.071 394H231.667L207.073 430.891C206.187 432.22 207.14 434 208.737 434H218.334L193.74 470.891C192.854 472.22 193.806 474 195.404 474H205L180.406 510.891C179.52 512.22 180.473 514 182.07 514H191.667L167.073 550.891C166.187 552.22 167.14 554 168.737 554H401.263C402.861 554 403.814 552.22 402.927 550.891L378.334 514H387.93C389.527 514 390.48 512.22 389.594 510.891L365 474H374.596C376.194 474 377.147 472.22 376.261 470.891L351.667 434H361.263C362.861 434 363.813 432.22 362.927 430.891L338.334 394H347.93C349.527 394 350.48 392.22 349.594 390.891L325 354H334.596C336.194 354 337.147 352.22 336.261 350.891L311.667 314H321.263C322.861 314 323.813 312.22 322.927 310.891L298.334 274H307.93C309.527 274 310.48 272.22 309.594 270.891L286.664 236.496C285.873 235.309 284.128 235.309 283.336 236.496Z"
			fill="#0B3239" />
		<path
			d="M137.336 217.496L114.406 251.891C113.52 253.22 114.473 255 116.071 255H125.667L101.073 291.891C100.187 293.22 101.14 295 102.737 295H112.334L87.7398 331.891C86.8537 333.22 87.8065 335 89.4039 335H99.0002L74.4065 371.891C73.5204 373.22 74.4732 375 76.0706 375H85.6669L61.0731 411.891C60.187 413.22 61.1398 415 62.7372 415H72.3335L47.7398 451.891C46.8537 453.22 47.8065 455 49.4039 455H59.0001L34.4064 491.891C33.5203 493.22 34.4731 495 36.0705 495H45.6667L21.0729 531.891C20.1869 533.22 21.1396 535 22.737 535H255.263C256.861 535 257.814 533.22 256.927 531.891L232.334 495H241.93C243.527 495 244.48 493.22 243.594 491.891L219 455H228.596C230.194 455 231.147 453.22 230.261 451.891L205.667 415H215.263C216.861 415 217.813 413.22 216.927 411.891L192.334 375H201.93C203.527 375 204.48 373.22 203.594 371.891L179 335H188.596C190.194 335 191.147 333.22 190.261 331.891L165.667 295H175.263C176.861 295 177.813 293.22 176.927 291.891L152.334 255H161.93C163.527 255 164.48 253.22 163.594 251.891L140.664 217.496C139.873 216.309 138.128 216.309 137.336 217.496Z"
			fill="#0B3239" />
		<path
			d="M477.336 240.496L454.406 274.891C453.52 276.22 454.473 278 456.071 278H465.667L441.073 314.891C440.187 316.22 441.14 318 442.737 318H452.334L427.74 354.891C426.854 356.22 427.806 358 429.404 358H439L414.406 394.891C413.52 396.22 414.473 398 416.071 398H425.667L401.073 434.891C400.187 436.22 401.14 438 402.737 438H412.334L387.74 474.891C386.854 476.22 387.806 478 389.404 478H399L374.406 514.891C373.52 516.22 374.473 518 376.07 518H385.667L361.073 554.891C360.187 556.22 361.14 558 362.737 558H595.263C596.861 558 597.814 556.22 596.927 554.891L572.334 518H581.93C583.527 518 584.48 516.22 583.594 514.891L559 478H568.596C570.194 478 571.147 476.22 570.261 474.891L545.667 438H555.263C556.861 438 557.813 436.22 556.927 434.891L532.334 398H541.93C543.527 398 544.48 396.22 543.594 394.891L519 358H528.596C530.194 358 531.147 356.22 530.261 354.891L505.667 318H515.263C516.861 318 517.813 316.22 516.927 314.891L492.334 278H501.93C503.527 278 504.48 276.22 503.594 274.891L480.664 240.496C479.873 239.309 478.128 239.309 477.336 240.496Z"
			fill="#0B3239" />
		<path
			d="M610.336 236.496L587.406 270.891C586.52 272.22 587.473 274 589.071 274H598.667L574.073 310.891C573.187 312.22 574.14 314 575.737 314H585.334L560.74 350.891C559.854 352.22 560.806 354 562.404 354H572L547.406 390.891C546.52 392.22 547.473 394 549.071 394H558.667L534.073 430.891C533.187 432.22 534.14 434 535.737 434H545.334L520.74 470.891C519.854 472.22 520.806 474 522.404 474H532L507.406 510.891C506.52 512.22 507.473 514 509.07 514H518.667L494.073 550.891C493.187 552.22 494.14 554 495.737 554H728.263C729.861 554 730.814 552.22 729.927 550.891L705.334 514H714.93C716.527 514 717.48 512.22 716.594 510.891L692 474H701.596C703.194 474 704.147 472.22 703.261 470.891L678.667 434H688.263C689.861 434 690.813 432.22 689.927 430.891L665.334 394H674.93C676.527 394 677.48 392.22 676.594 390.891L652 354H661.596C663.194 354 664.147 352.22 663.261 350.891L638.667 314H648.263C649.861 314 650.813 312.22 649.927 310.891L625.334 274H634.93C636.527 274 637.48 272.22 636.594 270.891L613.664 236.496C612.873 235.309 611.128 235.309 610.336 236.496Z"
			fill="#0B3239" />
		<path
			d="M910.336 226.496L887.406 260.891C886.52 262.22 887.473 264 889.071 264H898.667L874.073 300.891C873.187 302.22 874.14 304 875.737 304H885.334L860.74 340.891C859.854 342.22 860.806 344 862.404 344H872L847.406 380.891C846.52 382.22 847.473 384 849.071 384H858.667L834.073 420.891C833.187 422.22 834.14 424 835.737 424H845.334L820.74 460.891C819.854 462.22 820.806 464 822.404 464H832L807.406 500.891C806.52 502.22 807.473 504 809.07 504H818.667L794.073 540.891C793.187 542.22 794.14 544 795.737 544H1028.26C1029.86 544 1030.81 542.22 1029.93 540.891L1005.33 504H1014.93C1016.53 504 1017.48 502.22 1016.59 500.891L992 464H1001.6C1003.19 464 1004.15 462.22 1003.26 460.891L978.667 424H988.263C989.861 424 990.813 422.22 989.927 420.891L965.334 384H974.93C976.527 384 977.48 382.22 976.594 380.891L952 344H961.596C963.194 344 964.147 342.22 963.261 340.891L938.667 304H948.263C949.861 304 950.813 302.22 949.927 300.891L925.334 264H934.93C936.527 264 937.48 262.22 936.594 260.891L913.664 226.496C912.873 225.309 911.128 225.309 910.336 226.496Z"
			fill="#0B3239" />
		<path
			d="M1202.34 240.496L1179.41 274.891C1178.52 276.22 1179.47 278 1181.07 278H1190.67L1166.07 314.891C1165.19 316.22 1166.14 318 1167.74 318H1177.33L1152.74 354.891C1151.85 356.22 1152.81 358 1154.4 358H1164L1139.41 394.891C1138.52 396.22 1139.47 398 1141.07 398H1150.67L1126.07 434.891C1125.19 436.22 1126.14 438 1127.74 438H1137.33L1112.74 474.891C1111.85 476.22 1112.81 478 1114.4 478H1124L1099.41 514.891C1098.52 516.22 1099.47 518 1101.07 518H1110.67L1086.07 554.891C1085.19 556.22 1086.14 558 1087.74 558H1320.26C1321.86 558 1322.81 556.22 1321.93 554.891L1297.33 518H1306.93C1308.53 518 1309.48 516.22 1308.59 514.891L1284 478H1293.6C1295.19 478 1296.15 476.22 1295.26 474.891L1270.67 438H1280.26C1281.86 438 1282.81 436.22 1281.93 434.891L1257.33 398H1266.93C1268.53 398 1269.48 396.22 1268.59 394.891L1244 358H1253.6C1255.19 358 1256.15 356.22 1255.26 354.891L1230.67 318H1240.26C1241.86 318 1242.81 316.22 1241.93 314.891L1217.33 278H1226.93C1228.53 278 1229.48 276.22 1228.59 274.891L1205.66 240.496C1204.87 239.309 1203.13 239.309 1202.34 240.496Z"
			fill="#0B3239" />
		<path
			d="M1358.34 226.496L1335.41 260.891C1334.52 262.22 1335.47 264 1337.07 264H1346.67L1322.07 300.891C1321.19 302.22 1322.14 304 1323.74 304H1333.33L1308.74 340.891C1307.85 342.22 1308.81 344 1310.4 344H1320L1295.41 380.891C1294.52 382.22 1295.47 384 1297.07 384H1306.67L1282.07 420.891C1281.19 422.22 1282.14 424 1283.74 424H1293.33L1268.74 460.891C1267.85 462.22 1268.81 464 1270.4 464H1280L1255.41 500.891C1254.52 502.22 1255.47 504 1257.07 504H1266.67L1242.07 540.891C1241.19 542.22 1242.14 544 1243.74 544H1476.26C1477.86 544 1478.81 542.22 1477.93 540.891L1453.33 504H1462.93C1464.53 504 1465.48 502.22 1464.59 500.891L1440 464H1449.6C1451.19 464 1452.15 462.22 1451.26 460.891L1426.67 424H1436.26C1437.86 424 1438.81 422.22 1437.93 420.891L1413.33 384H1422.93C1424.53 384 1425.48 382.22 1424.59 380.891L1400 344H1409.6C1411.19 344 1412.15 342.22 1411.26 340.891L1386.67 304H1396.26C1397.86 304 1398.81 302.22 1397.93 300.891L1373.33 264H1382.93C1384.53 264 1385.48 262.22 1384.59 260.891L1361.66 226.496C1360.87 225.309 1359.13 225.309 1358.34 226.496Z"
			fill="#0B3239" />
		<path
			d="M43.3361 178.496L20.4065 212.891C19.5204 214.22 20.4732 216 22.0706 216H31.6669L7.07314 252.891C6.18706 254.22 7.13984 256 8.73723 256H18.3335L-6.26021 292.891C-7.14629 294.22 -6.1935 296 -4.59611 296H5.0002L-19.5935 332.891C-20.4796 334.22 -19.5268 336 -17.9294 336H-8.33315L-32.9269 372.891C-33.813 374.22 -32.8602 376 -31.2628 376H-21.6665L-46.2602 412.891C-47.1463 414.22 -46.1935 416 -44.5961 416H-34.9999L-59.5936 452.891C-60.4797 454.22 -59.5269 456 -57.9295 456H-48.3333L-72.9271 492.891C-73.8131 494.22 -72.8604 496 -71.263 496H161.263C162.861 496 163.814 494.22 162.927 492.891L138.334 456H147.93C149.527 456 150.48 454.22 149.594 452.891L125 416H134.596C136.194 416 137.147 414.22 136.261 412.891L111.667 376H121.263C122.861 376 123.813 374.22 122.927 372.891L98.3335 336H107.93C109.527 336 110.48 334.22 109.594 332.891L85.0002 296H94.5965C96.1939 296 97.1467 294.22 96.2606 292.891L71.6669 256H81.2632C82.8605 256 83.8133 254.22 82.9273 252.891L58.3336 216H67.9298C69.5272 216 70.48 214.22 69.5939 212.891L46.6643 178.496C45.8727 177.309 44.1277 177.309 43.3361 178.496Z"
			fill="#0B3239" />
		<path
			d="M1115.34 188.496L1092.41 222.891C1091.52 224.22 1092.47 226 1094.07 226H1103.67L1079.07 262.891C1078.19 264.22 1079.14 266 1080.74 266H1090.33L1065.74 302.891C1064.85 304.22 1065.81 306 1067.4 306H1077L1052.41 342.891C1051.52 344.22 1052.47 346 1054.07 346H1063.67L1039.07 382.891C1038.19 384.22 1039.14 386 1040.74 386H1050.33L1025.74 422.891C1024.85 424.22 1025.81 426 1027.4 426H1037L1012.41 462.891C1011.52 464.22 1012.47 466 1014.07 466H1023.67L999.073 502.891C998.187 504.22 999.14 506 1000.74 506H1233.26C1234.86 506 1235.81 504.22 1234.93 502.891L1210.33 466H1219.93C1221.53 466 1222.48 464.22 1221.59 462.891L1197 426H1206.6C1208.19 426 1209.15 424.22 1208.26 422.891L1183.67 386H1193.26C1194.86 386 1195.81 384.22 1194.93 382.891L1170.33 346H1179.93C1181.53 346 1182.48 344.22 1181.59 342.891L1157 306H1166.6C1168.19 306 1169.15 304.22 1168.26 302.891L1143.67 266H1153.26C1154.86 266 1155.81 264.22 1154.93 262.891L1130.33 226H1139.93C1141.53 226 1142.48 224.22 1141.59 222.891L1118.66 188.496C1117.87 187.309 1116.13 187.309 1115.34 188.496Z"
			fill="#0B3239" />
		<path
			d="M1272.34 196.496L1249.41 230.891C1248.52 232.22 1249.47 234 1251.07 234H1260.67L1236.07 270.891C1235.19 272.22 1236.14 274 1237.74 274H1247.33L1222.74 310.891C1221.85 312.22 1222.81 314 1224.4 314H1234L1209.41 350.891C1208.52 352.22 1209.47 354 1211.07 354H1220.67L1196.07 390.891C1195.19 392.22 1196.14 394 1197.74 394H1207.33L1182.74 430.891C1181.85 432.22 1182.81 434 1184.4 434H1194L1169.41 470.891C1168.52 472.22 1169.47 474 1171.07 474H1180.67L1156.07 510.891C1155.19 512.22 1156.14 514 1157.74 514H1390.26C1391.86 514 1392.81 512.22 1391.93 510.891L1367.33 474H1376.93C1378.53 474 1379.48 472.22 1378.59 470.891L1354 434H1363.6C1365.19 434 1366.15 432.22 1365.26 430.891L1340.67 394H1350.26C1351.86 394 1352.81 392.22 1351.93 390.891L1327.33 354H1336.93C1338.53 354 1339.48 352.22 1338.59 350.891L1314 314H1323.6C1325.19 314 1326.15 312.22 1325.26 310.891L1300.67 274H1310.26C1311.86 274 1312.81 272.22 1311.93 270.891L1287.33 234H1296.93C1298.53 234 1299.48 232.22 1298.59 230.891L1275.66 196.496C1274.87 195.309 1273.13 195.309 1272.34 196.496Z"
			fill="#0B3239" />
		<path
			d="M1414.34 194.496L1391.41 228.891C1390.52 230.22 1391.47 232 1393.07 232H1402.67L1378.07 268.891C1377.19 270.22 1378.14 272 1379.74 272H1389.33L1364.74 308.891C1363.85 310.22 1364.81 312 1366.4 312H1376L1351.41 348.891C1350.52 350.22 1351.47 352 1353.07 352H1362.67L1338.07 388.891C1337.19 390.22 1338.14 392 1339.74 392H1349.33L1324.74 428.891C1323.85 430.22 1324.81 432 1326.4 432H1336L1311.41 468.891C1310.52 470.22 1311.47 472 1313.07 472H1322.67L1298.07 508.891C1297.19 510.22 1298.14 512 1299.74 512H1532.26C1533.86 512 1534.81 510.22 1533.93 508.891L1509.33 472H1518.93C1520.53 472 1521.48 470.22 1520.59 468.891L1496 432H1505.6C1507.19 432 1508.15 430.22 1507.26 428.891L1482.67 392H1492.26C1493.86 392 1494.81 390.22 1493.93 388.891L1469.33 352H1478.93C1480.53 352 1481.48 350.22 1480.59 348.891L1456 312H1465.6C1467.19 312 1468.15 310.22 1467.26 308.891L1442.67 272H1452.26C1453.86 272 1454.81 270.22 1453.93 268.891L1429.33 232H1438.93C1440.53 232 1441.48 230.22 1440.59 228.891L1417.66 194.496C1416.87 193.309 1415.13 193.309 1414.34 194.496Z"
			fill="#0B3239" />
		<path
			d="M1527.34 217.496L1504.41 251.891C1503.52 253.22 1504.47 255 1506.07 255H1515.67L1491.07 291.891C1490.19 293.22 1491.14 295 1492.74 295H1502.33L1477.74 331.891C1476.85 333.22 1477.81 335 1479.4 335H1489L1464.41 371.891C1463.52 373.22 1464.47 375 1466.07 375H1475.67L1451.07 411.891C1450.19 413.22 1451.14 415 1452.74 415H1462.33L1437.74 451.891C1436.85 453.22 1437.81 455 1439.4 455H1449L1424.41 491.891C1423.52 493.22 1424.47 495 1426.07 495H1435.67L1411.07 531.891C1410.19 533.22 1411.14 535 1412.74 535H1645.26C1646.86 535 1647.81 533.22 1646.93 531.891L1622.33 495H1631.93C1633.53 495 1634.48 493.22 1633.59 491.891L1609 455H1618.6C1620.19 455 1621.15 453.22 1620.26 451.891L1595.67 415H1605.26C1606.86 415 1607.81 413.22 1606.93 411.891L1582.33 375H1591.93C1593.53 375 1594.48 373.22 1593.59 371.891L1569 335H1578.6C1580.19 335 1581.15 333.22 1580.26 331.891L1555.67 295H1565.26C1566.86 295 1567.81 293.22 1566.93 291.891L1542.33 255H1551.93C1553.53 255 1554.48 253.22 1553.59 251.891L1530.66 217.496C1529.87 216.309 1528.13 216.309 1527.34 217.496Z"
			fill="#0B3239" />
		<path
			d="M657.336 188.496L634.406 222.891C633.52 224.22 634.473 226 636.071 226H645.667L621.073 262.891C620.187 264.22 621.14 266 622.737 266H632.334L607.74 302.891C606.854 304.22 607.806 306 609.404 306H619L594.406 342.891C593.52 344.22 594.473 346 596.071 346H605.667L581.073 382.891C580.187 384.22 581.14 386 582.737 386H592.334L567.74 422.891C566.854 424.22 567.806 426 569.404 426H579L554.406 462.891C553.52 464.22 554.473 466 556.07 466H565.667L541.073 502.891C540.187 504.22 541.14 506 542.737 506H775.263C776.861 506 777.814 504.22 776.927 502.891L752.334 466H761.93C763.527 466 764.48 464.22 763.594 462.891L739 426H748.596C750.194 426 751.147 424.22 750.261 422.891L725.667 386H735.263C736.861 386 737.813 384.22 736.927 382.891L712.334 346H721.93C723.527 346 724.48 344.22 723.594 342.891L699 306H708.596C710.194 306 711.147 304.22 710.261 302.891L685.667 266H695.263C696.861 266 697.813 264.22 696.927 262.891L672.334 226H681.93C683.527 226 684.48 224.22 683.594 222.891L660.664 188.496C659.873 187.309 658.128 187.309 657.336 188.496Z"
			fill="#072B35" />
		<path
			d="M790.336 314.496L767.406 348.891C766.52 350.22 767.473 352 769.071 352H778.667L754.073 388.891C753.187 390.22 754.14 392 755.737 392H765.334L740.74 428.891C739.854 430.22 740.806 432 742.404 432H752L727.406 468.891C726.52 470.22 727.473 472 729.071 472H738.667L714.073 508.891C713.187 510.22 714.14 512 715.737 512H725.334L700.74 548.891C699.854 550.22 700.806 552 702.404 552H712L687.406 588.891C686.52 590.22 687.473 592 689.07 592H698.667L674.073 628.891C673.187 630.22 674.14 632 675.737 632H908.263C909.861 632 910.814 630.22 909.927 628.891L885.334 592H894.93C896.527 592 897.48 590.22 896.594 588.891L872 552H881.596C883.194 552 884.147 550.22 883.261 548.891L858.667 512H868.263C869.861 512 870.813 510.22 869.927 508.891L845.334 472H854.93C856.527 472 857.48 470.22 856.594 468.891L832 432H841.596C843.194 432 844.147 430.22 843.261 428.891L818.667 392H828.263C829.861 392 830.813 390.22 829.927 388.891L805.334 352H814.93C816.527 352 817.48 350.22 816.594 348.891L793.664 314.496C792.873 313.309 791.128 313.309 790.336 314.496Z"
			fill="#072B35" />
		<path
			d="M961.336 276.496L938.406 310.891C937.52 312.22 938.473 314 940.071 314H949.667L925.073 350.891C924.187 352.22 925.14 354 926.737 354H936.334L911.74 390.891C910.854 392.22 911.806 394 913.404 394H923L898.406 430.891C897.52 432.22 898.473 434 900.071 434H909.667L885.073 470.891C884.187 472.22 885.14 474 886.737 474H896.334L871.74 510.891C870.854 512.22 871.806 514 873.404 514H883L858.406 550.891C857.52 552.22 858.473 554 860.07 554H869.667L845.073 590.891C844.187 592.22 845.14 594 846.737 594H1079.26C1080.86 594 1081.81 592.22 1080.93 590.891L1056.33 554H1065.93C1067.53 554 1068.48 552.22 1067.59 550.891L1043 514H1052.6C1054.19 514 1055.15 512.22 1054.26 510.891L1029.67 474H1039.26C1040.86 474 1041.81 472.22 1040.93 470.891L1016.33 434H1025.93C1027.53 434 1028.48 432.22 1027.59 430.891L1003 394H1012.6C1014.19 394 1015.15 392.22 1014.26 390.891L989.667 354H999.263C1000.86 354 1001.81 352.22 1000.93 350.891L976.334 314H985.93C987.527 314 988.48 312.22 987.594 310.891L964.664 276.496C963.873 275.309 962.128 275.309 961.336 276.496Z"
			fill="#072B35" />
		<path
			d="M1135.34 302.496L1112.41 336.891C1111.52 338.22 1112.47 340 1114.07 340H1123.67L1099.07 376.891C1098.19 378.22 1099.14 380 1100.74 380H1110.33L1085.74 416.891C1084.85 418.22 1085.81 420 1087.4 420H1097L1072.41 456.891C1071.52 458.22 1072.47 460 1074.07 460H1083.67L1059.07 496.891C1058.19 498.22 1059.14 500 1060.74 500H1070.33L1045.74 536.891C1044.85 538.22 1045.81 540 1047.4 540H1057L1032.41 576.891C1031.52 578.22 1032.47 580 1034.07 580H1043.67L1019.07 616.891C1018.19 618.22 1019.14 620 1020.74 620H1253.26C1254.86 620 1255.81 618.22 1254.93 616.891L1230.33 580H1239.93C1241.53 580 1242.48 578.22 1241.59 576.891L1217 540H1226.6C1228.19 540 1229.15 538.22 1228.26 536.891L1203.67 500H1213.26C1214.86 500 1215.81 498.22 1214.93 496.891L1190.33 460H1199.93C1201.53 460 1202.48 458.22 1201.59 456.891L1177 420H1186.6C1188.19 420 1189.15 418.22 1188.26 416.891L1163.67 380H1173.26C1174.86 380 1175.81 378.22 1174.93 376.891L1150.33 340H1159.93C1161.53 340 1162.48 338.22 1161.59 336.891L1138.66 302.496C1137.87 301.309 1136.13 301.309 1135.34 302.496Z"
			fill="#072B35" />
		<path
			d="M1322.34 276.496L1299.41 310.891C1298.52 312.22 1299.47 314 1301.07 314H1310.67L1286.07 350.891C1285.19 352.22 1286.14 354 1287.74 354H1297.33L1272.74 390.891C1271.85 392.22 1272.81 394 1274.4 394H1284L1259.41 430.891C1258.52 432.22 1259.47 434 1261.07 434H1270.67L1246.07 470.891C1245.19 472.22 1246.14 474 1247.74 474H1257.33L1232.74 510.891C1231.85 512.22 1232.81 514 1234.4 514H1244L1219.41 550.891C1218.52 552.22 1219.47 554 1221.07 554H1230.67L1206.07 590.891C1205.19 592.22 1206.14 594 1207.74 594H1440.26C1441.86 594 1442.81 592.22 1441.93 590.891L1417.33 554H1426.93C1428.53 554 1429.48 552.22 1428.59 550.891L1404 514H1413.6C1415.19 514 1416.15 512.22 1415.26 510.891L1390.67 474H1400.26C1401.86 474 1402.81 472.22 1401.93 470.891L1377.33 434H1386.93C1388.53 434 1389.48 432.22 1388.59 430.891L1364 394H1373.6C1375.19 394 1376.15 392.22 1375.26 390.891L1350.67 354H1360.26C1361.86 354 1362.81 352.22 1361.93 350.891L1337.33 314H1346.93C1348.53 314 1349.48 312.22 1348.59 310.891L1325.66 276.496C1324.87 275.309 1323.13 275.309 1322.34 276.496Z"
			fill="#072B35" />
		<path
			d="M195.336 284.496L172.406 318.891C171.52 320.22 172.473 322 174.071 322H183.667L159.073 358.891C158.187 360.22 159.14 362 160.737 362H170.334L145.74 398.891C144.854 400.22 145.806 402 147.404 402H157L132.406 438.891C131.52 440.22 132.473 442 134.071 442H143.667L119.073 478.891C118.187 480.22 119.14 482 120.737 482H130.334L105.74 518.891C104.854 520.22 105.806 522 107.404 522H117L92.4064 558.891C91.5203 560.22 92.4731 562 94.0705 562H103.667L79.0729 598.891C78.1869 600.22 79.1396 602 80.737 602H313.263C314.861 602 315.814 600.22 314.927 598.891L290.334 562H299.93C301.527 562 302.48 560.22 301.594 558.891L277 522H286.596C288.194 522 289.147 520.22 288.261 518.891L263.667 482H273.263C274.861 482 275.813 480.22 274.927 478.891L250.334 442H259.93C261.527 442 262.48 440.22 261.594 438.891L237 402H246.596C248.194 402 249.147 400.22 248.261 398.891L223.667 362H233.263C234.861 362 235.813 360.22 234.927 358.891L210.334 322H219.93C221.527 322 222.48 320.22 221.594 318.891L198.664 284.496C197.873 283.309 196.128 283.309 195.336 284.496Z"
			fill="#072B35" />
		<path
			d="M563.336 302.496L540.406 336.891C539.52 338.22 540.473 340 542.071 340H551.667L527.073 376.891C526.187 378.22 527.14 380 528.737 380H538.334L513.74 416.891C512.854 418.22 513.806 420 515.404 420H525L500.406 456.891C499.52 458.22 500.473 460 502.071 460H511.667L487.073 496.891C486.187 498.22 487.14 500 488.737 500H498.334L473.74 536.891C472.854 538.22 473.806 540 475.404 540H485L460.406 576.891C459.52 578.22 460.473 580 462.07 580H471.667L447.073 616.891C446.187 618.22 447.14 620 448.737 620H681.263C682.861 620 683.814 618.22 682.927 616.891L658.334 580H667.93C669.527 580 670.48 578.22 669.594 576.891L645 540H654.596C656.194 540 657.147 538.22 656.261 536.891L631.667 500H641.263C642.861 500 643.813 498.22 642.927 496.891L618.334 460H627.93C629.527 460 630.48 458.22 629.594 456.891L605 420H614.596C616.194 420 617.147 418.22 616.261 416.891L591.667 380H601.263C602.861 380 603.813 378.22 602.927 376.891L578.334 340H587.93C589.527 340 590.48 338.22 589.594 336.891L566.664 302.496C565.873 301.309 564.128 301.309 563.336 302.496Z"
			fill="#072B35" />
		<path
			d="M859.336 240.496L836.406 274.891C835.52 276.22 836.473 278 838.071 278H847.667L823.073 314.891C822.187 316.22 823.14 318 824.737 318H834.334L809.74 354.891C808.854 356.22 809.806 358 811.404 358H821L796.406 394.891C795.52 396.22 796.473 398 798.071 398H807.667L783.073 434.891C782.187 436.22 783.14 438 784.737 438H794.334L769.74 474.891C768.854 476.22 769.806 478 771.404 478H781L756.406 514.891C755.52 516.22 756.473 518 758.07 518H767.667L743.073 554.891C742.187 556.22 743.14 558 744.737 558H977.263C978.861 558 979.814 556.22 978.927 554.891L954.334 518H963.93C965.527 518 966.48 516.22 965.594 514.891L941 478H950.596C952.194 478 953.147 476.22 952.261 474.891L927.667 438H937.263C938.861 438 939.813 436.22 938.927 434.891L914.334 398H923.93C925.527 398 926.48 396.22 925.594 394.891L901 358H910.596C912.194 358 913.147 356.22 912.261 354.891L887.667 318H897.263C898.861 318 899.813 316.22 898.927 314.891L874.334 278H883.93C885.527 278 886.48 276.22 885.594 274.891L862.664 240.496C861.873 239.309 860.128 239.309 859.336 240.496Z"
			fill="#072B35" />
		<path
			d="M1039.34 207.496L1016.41 241.891C1015.52 243.22 1016.47 245 1018.07 245H1027.67L1003.07 281.891C1002.19 283.22 1003.14 285 1004.74 285H1014.33L989.74 321.891C988.854 323.22 989.806 325 991.404 325H1001L976.406 361.891C975.52 363.22 976.473 365 978.071 365H987.667L963.073 401.891C962.187 403.22 963.14 405 964.737 405H974.334L949.74 441.891C948.854 443.22 949.806 445 951.404 445H961L936.406 481.891C935.52 483.22 936.473 485 938.07 485H947.667L923.073 521.891C922.187 523.22 923.14 525 924.737 525H1157.26C1158.86 525 1159.81 523.22 1158.93 521.891L1134.33 485H1143.93C1145.53 485 1146.48 483.22 1145.59 481.891L1121 445H1130.6C1132.19 445 1133.15 443.22 1132.26 441.891L1107.67 405H1117.26C1118.86 405 1119.81 403.22 1118.93 401.891L1094.33 365H1103.93C1105.53 365 1106.48 363.22 1105.59 361.891L1081 325H1090.6C1092.19 325 1093.15 323.22 1092.26 321.891L1067.67 285H1077.26C1078.86 285 1079.81 283.22 1078.93 281.891L1054.33 245H1063.93C1065.53 245 1066.48 243.22 1065.59 241.891L1042.66 207.496C1041.87 206.309 1040.13 206.309 1039.34 207.496Z"
			fill="#072B35" />
		<path
			d="M1235.34 217.496L1212.41 251.891C1211.52 253.22 1212.47 255 1214.07 255H1223.67L1199.07 291.891C1198.19 293.22 1199.14 295 1200.74 295H1210.33L1185.74 331.891C1184.85 333.22 1185.81 335 1187.4 335H1197L1172.41 371.891C1171.52 373.22 1172.47 375 1174.07 375H1183.67L1159.07 411.891C1158.19 413.22 1159.14 415 1160.74 415H1170.33L1145.74 451.891C1144.85 453.22 1145.81 455 1147.4 455H1157L1132.41 491.891C1131.52 493.22 1132.47 495 1134.07 495H1143.67L1119.07 531.891C1118.19 533.22 1119.14 535 1120.74 535H1353.26C1354.86 535 1355.81 533.22 1354.93 531.891L1330.33 495H1339.93C1341.53 495 1342.48 493.22 1341.59 491.891L1317 455H1326.6C1328.19 455 1329.15 453.22 1328.26 451.891L1303.67 415H1313.26C1314.86 415 1315.81 413.22 1314.93 411.891L1290.33 375H1299.93C1301.53 375 1302.48 373.22 1301.59 371.891L1277 335H1286.6C1288.19 335 1289.15 333.22 1288.26 331.891L1263.67 295H1273.26C1274.86 295 1275.81 293.22 1274.93 291.891L1250.33 255H1259.93C1261.53 255 1262.48 253.22 1261.59 251.891L1238.66 217.496C1237.87 216.309 1236.13 216.309 1235.34 217.496Z"
			fill="#072B35" />
		<path
			d="M1461.34 240.496L1438.41 274.891C1437.52 276.22 1438.47 278 1440.07 278H1449.67L1425.07 314.891C1424.19 316.22 1425.14 318 1426.74 318H1436.33L1411.74 354.891C1410.85 356.22 1411.81 358 1413.4 358H1423L1398.41 394.891C1397.52 396.22 1398.47 398 1400.07 398H1409.67L1385.07 434.891C1384.19 436.22 1385.14 438 1386.74 438H1396.33L1371.74 474.891C1370.85 476.22 1371.81 478 1373.4 478H1383L1358.41 514.891C1357.52 516.22 1358.47 518 1360.07 518H1369.67L1345.07 554.891C1344.19 556.22 1345.14 558 1346.74 558H1579.26C1580.86 558 1581.81 556.22 1580.93 554.891L1556.33 518H1565.93C1567.53 518 1568.48 516.22 1567.59 514.891L1543 478H1552.6C1554.19 478 1555.15 476.22 1554.26 474.891L1529.67 438H1539.26C1540.86 438 1541.81 436.22 1540.93 434.891L1516.33 398H1525.93C1527.53 398 1528.48 396.22 1527.59 394.891L1503 358H1512.6C1514.19 358 1515.15 356.22 1514.26 354.891L1489.67 318H1499.26C1500.86 318 1501.81 316.22 1500.93 314.891L1476.33 278H1485.93C1487.53 278 1488.48 276.22 1487.59 274.891L1464.66 240.496C1463.87 239.309 1462.13 239.309 1461.34 240.496Z"
			fill="#072B35" />
		<path
			d="M459.336 217.496L436.406 251.891C435.52 253.22 436.473 255 438.071 255H447.667L423.073 291.891C422.187 293.22 423.14 295 424.737 295H434.334L409.74 331.891C408.854 333.22 409.806 335 411.404 335H421L396.406 371.891C395.52 373.22 396.473 375 398.071 375H407.667L383.073 411.891C382.187 413.22 383.14 415 384.737 415H394.334L369.74 451.891C368.854 453.22 369.806 455 371.404 455H381L356.406 491.891C355.52 493.22 356.473 495 358.07 495H367.667L343.073 531.891C342.187 533.22 343.14 535 344.737 535H577.263C578.861 535 579.814 533.22 578.927 531.891L554.334 495H563.93C565.527 495 566.48 493.22 565.594 491.891L541 455H550.596C552.194 455 553.147 453.22 552.261 451.891L527.667 415H537.263C538.861 415 539.813 413.22 538.927 411.891L514.334 375H523.93C525.527 375 526.48 373.22 525.594 371.891L501 335H510.596C512.194 335 513.147 333.22 512.261 331.891L487.667 295H497.263C498.861 295 499.813 293.22 498.927 291.891L474.334 255H483.93C485.527 255 486.48 253.22 485.594 251.891L462.664 217.496C461.873 216.309 460.128 216.309 459.336 217.496Z"
			fill="#072B35" />
		<path
			d="M308.336 196.496L285.406 230.891C284.52 232.22 285.473 234 287.071 234H296.667L272.073 270.891C271.187 272.22 272.14 274 273.737 274H283.334L258.74 310.891C257.854 312.22 258.806 314 260.404 314H270L245.406 350.891C244.52 352.22 245.473 354 247.071 354H256.667L232.073 390.891C231.187 392.22 232.14 394 233.737 394H243.334L218.74 430.891C217.854 432.22 218.806 434 220.404 434H230L205.406 470.891C204.52 472.22 205.473 474 207.07 474H216.667L192.073 510.891C191.187 512.22 192.14 514 193.737 514H426.263C427.861 514 428.814 512.22 427.927 510.891L403.334 474H412.93C414.527 474 415.48 472.22 414.594 470.891L390 434H399.596C401.194 434 402.147 432.22 401.261 430.891L376.667 394H386.263C387.861 394 388.813 392.22 387.927 390.891L363.334 354H372.93C374.527 354 375.48 352.22 374.594 350.891L350 314H359.596C361.194 314 362.147 312.22 361.261 310.891L336.667 274H346.263C347.861 274 348.813 272.22 347.927 270.891L323.334 234H332.93C334.527 234 335.48 232.22 334.594 230.891L311.664 196.496C310.873 195.309 309.128 195.309 308.336 196.496Z"
			fill="#072B35" />
		<path
			d="M91.3361 217.496L68.4065 251.891C67.5204 253.22 68.4732 255 70.0706 255H79.6669L55.0731 291.891C54.1871 293.22 55.1398 295 56.7372 295H66.3335L41.7398 331.891C40.8537 333.22 41.8065 335 43.4039 335H53.0002L28.4065 371.891C27.5204 373.22 28.4732 375 30.0706 375H39.6669L15.0731 411.891C14.187 413.22 15.1398 415 16.7372 415H26.3335L1.73979 451.891C0.853718 453.22 1.8065 455 3.40389 455H13.0001L-11.5936 491.891C-12.4797 493.22 -11.5269 495 -9.92951 495H-0.333332L-24.9271 531.891C-25.8131 533.22 -24.8604 535 -23.263 535H209.263C210.861 535 211.814 533.22 210.927 531.891L186.334 495H195.93C197.527 495 198.48 493.22 197.594 491.891L173 455H182.596C184.194 455 185.147 453.22 184.261 451.891L159.667 415H169.263C170.861 415 171.813 413.22 170.927 411.891L146.334 375H155.93C157.527 375 158.48 373.22 157.594 371.891L133 335H142.596C144.194 335 145.147 333.22 144.261 331.891L119.667 295H129.263C130.861 295 131.813 293.22 130.927 291.891L106.334 255H115.93C117.527 255 118.48 253.22 117.594 251.891L94.6643 217.496C93.8727 216.309 92.1277 216.309 91.3361 217.496Z"
			fill="#072B35" />
		<path
			d="M118.336 195.496L95.4065 229.891C94.5204 231.22 95.4732 233 97.0706 233H106.667L82.0731 269.891C81.1871 271.22 82.1398 273 83.7372 273H93.3335L68.7398 309.891C67.8537 311.22 68.8065 313 70.4039 313H80.0002L55.4065 349.891C54.5204 351.22 55.4732 353 57.0706 353H66.6669L42.0731 389.891C41.187 391.22 42.1398 393 43.7372 393H53.3335L28.7398 429.891C27.8537 431.22 28.8065 433 30.4039 433H40.0001L15.4064 469.891C14.5203 471.22 15.4731 473 17.0705 473H26.6667L2.07294 509.891C1.18686 511.22 2.13964 513 3.73703 513H236.263C237.861 513 238.814 511.22 237.927 509.891L213.334 473H222.93C224.527 473 225.48 471.22 224.594 469.891L200 433H209.596C211.194 433 212.147 431.22 211.261 429.891L186.667 393H196.263C197.861 393 198.813 391.22 197.927 389.891L173.334 353H182.93C184.527 353 185.48 351.22 184.594 349.891L160 313H169.596C171.194 313 172.147 311.22 171.261 309.891L146.667 273H156.263C157.861 273 158.813 271.22 157.927 269.891L133.334 233H142.93C144.527 233 145.48 231.22 144.594 229.891L121.664 195.496C120.873 194.309 119.128 194.309 118.336 195.496Z"
			fill="#032430" />
		<path
			d="M417.336 227.496L394.406 261.891C393.52 263.22 394.473 265 396.071 265H405.667L381.073 301.891C380.187 303.22 381.14 305 382.737 305H392.334L367.74 341.891C366.854 343.22 367.806 345 369.404 345H379L354.406 381.891C353.52 383.22 354.473 385 356.071 385H365.667L341.073 421.891C340.187 423.22 341.14 425 342.737 425H352.334L327.74 461.891C326.854 463.22 327.806 465 329.404 465H339L314.406 501.891C313.52 503.22 314.473 505 316.07 505H325.667L301.073 541.891C300.187 543.22 301.14 545 302.737 545H535.263C536.861 545 537.814 543.22 536.927 541.891L512.334 505H521.93C523.527 505 524.48 503.22 523.594 501.891L499 465H508.596C510.194 465 511.147 463.22 510.261 461.891L485.667 425H495.263C496.861 425 497.813 423.22 496.927 421.891L472.334 385H481.93C483.527 385 484.48 383.22 483.594 381.891L459 345H468.596C470.194 345 471.147 343.22 470.261 341.891L445.667 305H455.263C456.861 305 457.813 303.22 456.927 301.891L432.334 265H441.93C443.527 265 444.48 263.22 443.594 261.891L420.664 227.496C419.873 226.309 418.128 226.309 417.336 227.496Z"
			fill="#032430" />
		<path
			d="M568.336 348.496L545.406 382.891C544.52 384.22 545.473 386 547.071 386H556.667L532.073 422.891C531.187 424.22 532.14 426 533.737 426H543.334L518.74 462.891C517.854 464.22 518.806 466 520.404 466H530L505.406 502.891C504.52 504.22 505.473 506 507.071 506H516.667L492.073 542.891C491.187 544.22 492.14 546 493.737 546H503.334L478.74 582.891C477.854 584.22 478.806 586 480.404 586H490L465.406 622.891C464.52 624.22 465.473 626 467.07 626H476.667L452.073 662.891C451.187 664.22 452.14 666 453.737 666H686.263C687.861 666 688.814 664.22 687.927 662.891L663.334 626H672.93C674.527 626 675.48 624.22 674.594 622.891L650 586H659.596C661.194 586 662.147 584.22 661.261 582.891L636.667 546H646.263C647.861 546 648.813 544.22 647.927 542.891L623.334 506H632.93C634.527 506 635.48 504.22 634.594 502.891L610 466H619.596C621.194 466 622.147 464.22 621.261 462.891L596.667 426H606.263C607.861 426 608.813 424.22 607.927 422.891L583.334 386H592.93C594.527 386 595.48 384.22 594.594 382.891L571.664 348.496C570.873 347.309 569.128 347.309 568.336 348.496Z"
			fill="#032430" />
		<path
			d="M910.336 264.496L887.406 298.891C886.52 300.22 887.473 302 889.071 302H898.667L874.073 338.891C873.187 340.22 874.14 342 875.737 342H885.334L860.74 378.891C859.854 380.22 860.806 382 862.404 382H872L847.406 418.891C846.52 420.22 847.473 422 849.071 422H858.667L834.073 458.891C833.187 460.22 834.14 462 835.737 462H845.334L820.74 498.891C819.854 500.22 820.806 502 822.404 502H832L807.406 538.891C806.52 540.22 807.473 542 809.07 542H818.667L794.073 578.891C793.187 580.22 794.14 582 795.737 582H1028.26C1029.86 582 1030.81 580.22 1029.93 578.891L1005.33 542H1014.93C1016.53 542 1017.48 540.22 1016.59 538.891L992 502H1001.6C1003.19 502 1004.15 500.22 1003.26 498.891L978.667 462H988.263C989.861 462 990.813 460.22 989.927 458.891L965.334 422H974.93C976.527 422 977.48 420.22 976.594 418.891L952 382H961.596C963.194 382 964.147 380.22 963.261 378.891L938.667 342H948.263C949.861 342 950.813 340.22 949.927 338.891L925.334 302H934.93C936.527 302 937.48 300.22 936.594 298.891L913.664 264.496C912.873 263.309 911.128 263.309 910.336 264.496Z"
			fill="#032430" />
		<path
			d="M832.336 400.496L809.406 434.891C808.52 436.22 809.473 438 811.071 438H820.667L796.073 474.891C795.187 476.22 796.14 478 797.737 478H807.334L782.74 514.891C781.854 516.22 782.806 518 784.404 518H794L769.406 554.891C768.52 556.22 769.473 558 771.071 558H780.667L756.073 594.891C755.187 596.22 756.14 598 757.737 598H767.334L742.74 634.891C741.854 636.22 742.806 638 744.404 638H754L729.406 674.891C728.52 676.22 729.473 678 731.07 678H740.667L716.073 714.891C715.187 716.22 716.14 718 717.737 718H950.263C951.861 718 952.814 716.22 951.927 714.891L927.334 678H936.93C938.527 678 939.48 676.22 938.594 674.891L914 638H923.596C925.194 638 926.147 636.22 925.261 634.891L900.667 598H910.263C911.861 598 912.813 596.22 911.927 594.891L887.334 558H896.93C898.527 558 899.48 556.22 898.594 554.891L874 518H883.596C885.194 518 886.147 516.22 885.261 514.891L860.667 478H870.263C871.861 478 872.813 476.22 871.927 474.891L847.334 438H856.93C858.527 438 859.48 436.22 858.594 434.891L835.664 400.496C834.873 399.309 833.128 399.309 832.336 400.496Z"
			fill="#032430" />
		<path
			d="M271.336 284.496L248.406 318.891C247.52 320.22 248.473 322 250.071 322H259.667L235.073 358.891C234.187 360.22 235.14 362 236.737 362H246.334L221.74 398.891C220.854 400.22 221.806 402 223.404 402H233L208.406 438.891C207.52 440.22 208.473 442 210.071 442H219.667L195.073 478.891C194.187 480.22 195.14 482 196.737 482H206.334L181.74 518.891C180.854 520.22 181.806 522 183.404 522H193L168.406 558.891C167.52 560.22 168.473 562 170.07 562H179.667L155.073 598.891C154.187 600.22 155.14 602 156.737 602H389.263C390.861 602 391.814 600.22 390.927 598.891L366.334 562H375.93C377.527 562 378.48 560.22 377.594 558.891L353 522H362.596C364.194 522 365.147 520.22 364.261 518.891L339.667 482H349.263C350.861 482 351.813 480.22 350.927 478.891L326.334 442H335.93C337.527 442 338.48 440.22 337.594 438.891L313 402H322.596C324.194 402 325.147 400.22 324.261 398.891L299.667 362H309.263C310.861 362 311.813 360.22 310.927 358.891L286.334 322H295.93C297.527 322 298.48 320.22 297.594 318.891L274.664 284.496C273.873 283.309 272.128 283.309 271.336 284.496Z"
			fill="#032430" />
		<path
			d="M1222.34 338.496L1199.41 372.891C1198.52 374.22 1199.47 376 1201.07 376H1210.67L1186.07 412.891C1185.19 414.22 1186.14 416 1187.74 416H1197.33L1172.74 452.891C1171.85 454.22 1172.81 456 1174.4 456H1184L1159.41 492.891C1158.52 494.22 1159.47 496 1161.07 496H1170.67L1146.07 532.891C1145.19 534.22 1146.14 536 1147.74 536H1157.33L1132.74 572.891C1131.85 574.22 1132.81 576 1134.4 576H1144L1119.41 612.891C1118.52 614.22 1119.47 616 1121.07 616H1130.67L1106.07 652.891C1105.19 654.22 1106.14 656 1107.74 656H1340.26C1341.86 656 1342.81 654.22 1341.93 652.891L1317.33 616H1326.93C1328.53 616 1329.48 614.22 1328.59 612.891L1304 576H1313.6C1315.19 576 1316.15 574.22 1315.26 572.891L1290.67 536H1300.26C1301.86 536 1302.81 534.22 1301.93 532.891L1277.33 496H1286.93C1288.53 496 1289.48 494.22 1288.59 492.891L1264 456H1273.6C1275.19 456 1276.15 454.22 1275.26 452.891L1250.67 416H1260.26C1261.86 416 1262.81 414.22 1261.93 412.891L1237.33 376H1246.93C1248.53 376 1249.48 374.22 1248.59 372.891L1225.66 338.496C1224.87 337.309 1223.13 337.309 1222.34 338.496Z"
			fill="#032430" />
		<path
			d="M-1.6639 314.496L-24.5935 348.891C-25.4796 350.22 -24.5268 352 -22.9294 352H-13.3331L-37.9269 388.891C-38.8129 390.22 -37.8602 392 -36.2628 392H-26.6665L-51.2602 428.891C-52.1463 430.22 -51.1935 432 -49.5961 432H-39.9998L-64.5935 468.891C-65.4796 470.22 -64.5268 472 -62.9294 472H-53.3331L-77.9269 508.891C-78.813 510.22 -77.8602 512 -76.2628 512H-66.6665L-91.2602 548.891C-92.1463 550.22 -91.1935 552 -89.5961 552H-79.9999L-104.594 588.891C-105.48 590.22 -104.527 592 -102.93 592H-93.3333L-117.927 628.891C-118.813 630.22 -117.86 632 -116.263 632H116.263C117.861 632 118.814 630.22 117.927 628.891L93.3337 592H102.93C104.527 592 105.48 590.22 104.594 588.891L80.0003 552H89.5965C91.1939 552 92.1467 550.22 91.2606 548.891L66.6669 512H76.2632C77.8605 512 78.8133 510.22 77.9273 508.891L53.3335 472H62.9298C64.5272 472 65.48 470.22 64.5939 468.891L40.0002 432H49.5965C51.1939 432 52.1467 430.22 51.2606 428.891L26.6669 392H36.2632C37.8605 392 38.8133 390.22 37.9273 388.891L13.3336 352H22.9298C24.5272 352 25.48 350.22 24.5939 348.891L1.6643 314.496C0.872658 313.309 -0.872261 313.309 -1.6639 314.496Z"
			fill="#032430" />
		<path
			d="M1534.34 314.496L1511.41 348.891C1510.52 350.22 1511.47 352 1513.07 352H1522.67L1498.07 388.891C1497.19 390.22 1498.14 392 1499.74 392H1509.33L1484.74 428.891C1483.85 430.22 1484.81 432 1486.4 432H1496L1471.41 468.891C1470.52 470.22 1471.47 472 1473.07 472H1482.67L1458.07 508.891C1457.19 510.22 1458.14 512 1459.74 512H1469.33L1444.74 548.891C1443.85 550.22 1444.81 552 1446.4 552H1456L1431.41 588.891C1430.52 590.22 1431.47 592 1433.07 592H1442.67L1418.07 628.891C1417.19 630.22 1418.14 632 1419.74 632H1652.26C1653.86 632 1654.81 630.22 1653.93 628.891L1629.33 592H1638.93C1640.53 592 1641.48 590.22 1640.59 588.891L1616 552H1625.6C1627.19 552 1628.15 550.22 1627.26 548.891L1602.67 512H1612.26C1613.86 512 1614.81 510.22 1613.93 508.891L1589.33 472H1598.93C1600.53 472 1601.48 470.22 1600.59 468.891L1576 432H1585.6C1587.19 432 1588.15 430.22 1587.26 428.891L1562.67 392H1572.26C1573.86 392 1574.81 390.22 1573.93 388.891L1549.33 352H1558.93C1560.53 352 1561.48 350.22 1560.59 348.891L1537.66 314.496C1536.87 313.309 1535.13 313.309 1534.34 314.496Z"
			fill="#032430" />
		<path
			d="M708.336 196.496L685.406 230.891C684.52 232.22 685.473 234 687.071 234H696.667L672.073 270.891C671.187 272.22 672.14 274 673.737 274H683.334L658.74 310.891C657.854 312.22 658.806 314 660.404 314H670L645.406 350.891C644.52 352.22 645.473 354 647.071 354H656.667L632.073 390.891C631.187 392.22 632.14 394 633.737 394H643.334L618.74 430.891C617.854 432.22 618.806 434 620.404 434H630L605.406 470.891C604.52 472.22 605.473 474 607.07 474H616.667L592.073 510.891C591.187 512.22 592.14 514 593.737 514H826.263C827.861 514 828.814 512.22 827.927 510.891L803.334 474H812.93C814.527 474 815.48 472.22 814.594 470.891L790 434H799.596C801.194 434 802.147 432.22 801.261 430.891L776.667 394H786.263C787.861 394 788.813 392.22 787.927 390.891L763.334 354H772.93C774.527 354 775.48 352.22 774.594 350.891L750 314H759.596C761.194 314 762.147 312.22 761.261 310.891L736.667 274H746.263C747.861 274 748.813 272.22 747.927 270.891L723.334 234H732.93C734.527 234 735.48 232.22 734.594 230.891L711.664 196.496C710.873 195.309 709.128 195.309 708.336 196.496Z"
			fill="#032430" />
		<path
			d="M1065.34 226.496L1042.41 260.891C1041.52 262.22 1042.47 264 1044.07 264H1053.67L1029.07 300.891C1028.19 302.22 1029.14 304 1030.74 304H1040.33L1015.74 340.891C1014.85 342.22 1015.81 344 1017.4 344H1027L1002.41 380.891C1001.52 382.22 1002.47 384 1004.07 384H1013.67L989.073 420.891C988.187 422.22 989.14 424 990.737 424H1000.33L975.74 460.891C974.854 462.22 975.806 464 977.404 464H987L962.406 500.891C961.52 502.22 962.473 504 964.07 504H973.667L949.073 540.891C948.187 542.22 949.14 544 950.737 544H1183.26C1184.86 544 1185.81 542.22 1184.93 540.891L1160.33 504H1169.93C1171.53 504 1172.48 502.22 1171.59 500.891L1147 464H1156.6C1158.19 464 1159.15 462.22 1158.26 460.891L1133.67 424H1143.26C1144.86 424 1145.81 422.22 1144.93 420.891L1120.33 384H1129.93C1131.53 384 1132.48 382.22 1131.59 380.891L1107 344H1116.6C1118.19 344 1119.15 342.22 1118.26 340.891L1093.67 304H1103.26C1104.86 304 1105.81 302.22 1104.93 300.891L1080.33 264H1089.93C1091.53 264 1092.48 262.22 1091.59 260.891L1068.66 226.496C1067.87 225.309 1066.13 225.309 1065.34 226.496Z"
			fill="#032430" />
		<path
			d="M1392.34 207.496L1369.41 241.891C1368.52 243.22 1369.47 245 1371.07 245H1380.67L1356.07 281.891C1355.19 283.22 1356.14 285 1357.74 285H1367.33L1342.74 321.891C1341.85 323.22 1342.81 325 1344.4 325H1354L1329.41 361.891C1328.52 363.22 1329.47 365 1331.07 365H1340.67L1316.07 401.891C1315.19 403.22 1316.14 405 1317.74 405H1327.33L1302.74 441.891C1301.85 443.22 1302.81 445 1304.4 445H1314L1289.41 481.891C1288.52 483.22 1289.47 485 1291.07 485H1300.67L1276.07 521.891C1275.19 523.22 1276.14 525 1277.74 525H1510.26C1511.86 525 1512.81 523.22 1511.93 521.891L1487.33 485H1496.93C1498.53 485 1499.48 483.22 1498.59 481.891L1474 445H1483.6C1485.19 445 1486.15 443.22 1485.26 441.891L1460.67 405H1470.26C1471.86 405 1472.81 403.22 1471.93 401.891L1447.33 365H1456.93C1458.53 365 1459.48 363.22 1458.59 361.891L1434 325H1443.6C1445.19 325 1446.15 323.22 1445.26 321.891L1420.67 285H1430.26C1431.86 285 1432.81 283.22 1431.93 281.891L1407.33 245H1416.93C1418.53 245 1419.48 243.22 1418.59 241.891L1395.66 207.496C1394.87 206.309 1393.13 206.309 1392.34 207.496Z"
			fill="#032430" />
	</g>
	<defs>
		<clipPath id="clip0_1865_1434">
			<rect width="1536" height="512" fill="white" />
		</clipPath>
	</defs>
</svg>
	