<svg width="256" height="256" viewBox="0 0 256 256" fill="none" xmlns="http://www.w3.org/2000/svg">
	<g clip-path="url(#clip0_1047_627)">
		<rect width="256" height="256" fill="#002C37" />
		<g filter="url(#filter0_f_1047_627)">
			<path fill-rule="evenodd" clip-rule="evenodd"
				d="M53.9123 -31.6263C54.0909 -31.9551 54.4456 -31.9756 54.6613 -31.6695L80.1082 4.44072C80.4585 4.93753 80.1458 5.73614 79.6631 5.57817L69.7475 2.33376L85.2252 24.2977C85.5755 24.7944 85.2627 25.593 84.7801 25.4352L74.8644 22.1908L90.3422 44.155C90.6925 44.6517 90.3797 45.4502 89.8971 45.2923L79.4047 41.8592L95.4987 64.698C95.849 65.1947 95.5363 65.9932 95.0536 65.8352L85.1379 62.5905L100.616 84.555C100.966 85.0516 100.653 85.8502 100.171 85.6922L90.2549 82.4475L105.733 104.411C106.083 104.909 105.77 105.707 105.288 105.549L95.3719 102.304L110.85 124.268C111.2 124.766 110.887 125.564 110.405 125.406L100.489 122.162L115.967 144.125C116.317 144.623 116.004 145.421 115.522 145.263L105.606 142.019L121.084 163.983C121.434 164.48 121.121 165.278 120.638 165.12L110.723 161.876L126.201 183.84C126.551 184.337 126.238 185.135 125.755 184.977L115.84 181.732L131.318 203.697C131.668 204.194 131.355 204.992 130.872 204.834L120.38 201.401L136.474 224.24C136.824 224.737 136.512 225.535 136.029 225.377L126.113 222.132L141.591 244.097C141.941 244.593 141.629 245.392 141.146 245.234L69.0423 221.643C68.9522 221.613 68.8592 221.618 68.7732 221.658L-0.136933 253.389C-0.598299 253.602 -1.00083 252.844 -0.710259 252.311L12.1378 228.711L2.66127 233.075C2.19992 233.288 1.79738 232.531 2.08796 231.997L15.4477 207.458L5.41988 212.076C4.95854 212.288 4.55601 211.531 4.84659 210.997L17.6945 187.398L8.2181 191.762C7.75675 191.974 7.35423 191.217 7.64481 190.683L20.4927 167.084L11.0163 171.448C10.555 171.66 10.1524 170.903 10.443 170.369L23.291 146.771L13.8145 151.134C13.3532 151.346 12.9507 150.589 13.2412 150.055L26.0892 126.457L16.6127 130.82C16.1514 131.033 15.7489 130.275 16.0394 129.741L28.8874 106.142L19.411 110.506C18.9496 110.719 18.5471 109.961 18.8376 109.427L31.6856 85.8282L22.2092 90.1923C21.7478 90.4048 21.3453 89.6475 21.6359 89.1139L34.4839 65.5144L25.0074 69.8785C24.546 70.0909 24.1435 69.3337 24.4341 68.8L37.7936 44.2611L27.766 48.8786C27.3047 49.0911 26.9021 48.3338 27.1927 47.8002L40.0406 24.2009L30.5642 28.5646C30.1029 28.7769 29.7003 28.0196 29.9909 27.486L42.8388 3.88699L33.3624 8.25075C32.9011 8.46321 32.4985 7.70589 32.7891 7.17209L53.9123 -31.6263Z"
				fill="#002838" />
		</g>
		<g filter="url(#filter1_f_1047_627)">
			<path fill-rule="evenodd" clip-rule="evenodd"
				d="M145.018 -38.9935C145.314 -39.2696 145.759 -39.2007 145.958 -38.848L169.437 2.74972C169.76 3.32208 169.192 4.0227 168.628 3.74769L157.045 -1.90117L171.325 23.4005C171.649 23.9727 171.081 24.6733 170.517 24.3985L158.933 18.7497L173.214 44.0516C173.537 44.6238 172.969 45.3244 172.405 45.0494L160.148 39.072L174.997 65.3814C175.321 65.9536 174.753 66.6542 174.189 66.3792L162.605 60.73L176.886 86.0322C177.209 86.6044 176.641 87.305 176.077 87.03L164.493 81.3807L178.774 106.682C179.097 107.255 178.529 107.956 177.966 107.681L166.382 102.032L180.663 127.333C180.986 127.906 180.418 128.606 179.854 128.331L168.27 122.683L182.551 147.984C182.874 148.557 182.306 149.257 181.743 148.982L170.159 143.334L184.44 168.635C184.763 169.207 184.195 169.908 183.631 169.633L172.047 163.985L186.328 189.286C186.651 189.858 186.083 190.559 185.52 190.284L173.936 184.635L188.217 209.937C188.54 210.509 187.972 211.21 187.408 210.935L175.15 204.957L190 231.267C190.323 231.839 189.755 232.539 189.191 232.264L177.608 226.615L191.888 251.917C192.212 252.49 191.644 253.19 191.08 252.915L106.845 211.839C106.74 211.787 106.624 211.769 106.508 211.787L13.7969 225.474C13.1762 225.565 12.8467 224.726 13.3275 224.278L34.5902 204.478L21.8405 206.36C21.2198 206.452 20.8902 205.612 21.3711 205.165L43.4805 184.576L29.9892 186.568C29.3685 186.659 29.0389 185.82 29.5198 185.372L50.7823 165.572L38.0327 167.454C37.412 167.546 37.0825 166.707 37.5633 166.259L58.8257 146.459L46.0763 148.341C45.4556 148.433 45.126 147.593 45.6069 147.145L66.8693 127.346L54.1199 129.228C53.4992 129.319 53.1696 128.48 53.6506 128.031L74.9129 108.232L62.1634 110.114C61.5427 110.206 61.2132 109.366 61.6941 108.918L82.9565 89.1181L70.207 91.0008C69.5863 91.0924 69.2567 90.2529 69.7377 89.8045L91.0001 70.0047L78.2505 71.8874C77.6298 71.979 77.3003 71.1395 77.7812 70.6918L99.0438 50.8914L86.2941 52.774C85.6734 52.8656 85.3439 52.0262 85.8247 51.5784L107.934 30.9898L94.4428 32.9816C93.8221 33.0732 93.4925 32.2337 93.9734 31.786L115.236 11.9858L102.486 13.868C101.866 13.9595 101.536 13.12 102.017 12.6723L123.279 -7.12769L110.53 -5.24537C109.909 -5.15372 109.58 -5.99327 110.061 -6.44114L145.018 -38.9935Z"
				fill="#002838" />
		</g>
		<g filter="url(#filter2_f_1047_627)">
			<path fill-rule="evenodd" clip-rule="evenodd"
				d="M207.185 -60.0623C207.472 -60.4205 208.063 -60.4976 208.433 -60.2251L252.088 -28.0863C252.689 -27.6442 252.194 -26.7937 251.383 -26.8751L234.733 -28.5454L261.286 -8.99697C261.887 -8.55497 261.392 -7.70449 260.581 -7.78571L243.931 -9.45597L270.484 10.0927C271.084 10.5347 270.589 11.3851 269.779 11.3038L252.16 9.53632L279.77 29.8634C280.371 30.3054 279.876 31.1558 279.065 31.0744L262.415 29.4038L288.968 48.9527C289.569 49.3947 289.074 50.2451 288.263 50.1638L271.613 48.4931L298.166 68.0414C298.767 68.4841 298.271 69.3345 297.461 69.2531L280.811 67.5824L307.363 87.1307C307.964 87.5734 307.469 88.4238 306.659 88.3424L290.008 86.6725L316.561 106.22C317.162 106.663 316.667 107.513 315.856 107.432L299.206 105.762L325.759 125.31C326.36 125.752 325.864 126.602 325.054 126.521L308.404 124.851L334.956 144.399C335.557 144.841 335.062 145.692 334.252 145.61L317.601 143.94L344.154 163.489C344.755 163.931 344.26 164.781 343.449 164.7L325.83 162.932L353.441 183.259C354.042 183.701 353.547 184.552 352.736 184.47L336.086 182.8L362.639 202.349C363.239 202.791 362.744 203.641 361.934 203.56L240.858 191.415C240.707 191.399 240.552 191.419 240.41 191.473L126.503 234.277C125.741 234.563 125.044 233.869 125.511 233.287L146.16 207.58L130.495 213.467C129.733 213.753 129.036 213.058 129.503 212.477L150.974 185.746L134.398 191.975C133.636 192.262 132.939 191.567 133.406 190.985L154.055 165.278L138.39 171.165C137.628 171.451 136.931 170.757 137.398 170.175L158.046 144.469L142.382 150.355C141.62 150.641 140.923 149.946 141.39 149.365L162.039 123.658L146.374 129.544C145.612 129.831 144.915 129.136 145.382 128.554L166.03 102.848L150.366 108.734C149.604 109.021 148.907 108.326 149.374 107.744L170.022 82.0372L154.358 87.924C153.596 88.2106 152.899 87.5157 153.366 86.9337L174.014 61.227L158.35 67.1138C157.588 67.4004 156.891 66.7055 157.358 66.1241L178.006 40.4167L162.342 46.3035C161.579 46.5901 160.883 45.8952 161.35 45.3139L182.82 18.5832L166.245 24.812C165.483 25.0986 164.786 24.4037 165.253 23.8224L185.901 -1.88474L170.237 4.00164C169.474 4.28809 168.778 3.59313 169.245 3.0118L189.893 -22.695L174.229 -16.8086C173.466 -16.522 172.77 -17.2169 173.237 -17.7984L207.185 -60.0623Z"
				fill="#002838" />
		</g>
		<g filter="url(#filter3_f_1047_627)">
			<path fill-rule="evenodd" clip-rule="evenodd"
				d="M172.441 -29.9517C172.769 -30.2979 173.289 -30.244 173.54 -29.838L203.101 18.0527C203.508 18.7117 202.888 19.5786 202.218 19.2876L188.463 13.3103L206.443 42.4397C206.85 43.0984 206.23 43.9654 205.56 43.6746L191.805 37.6973L209.785 66.827C210.192 67.4858 209.572 68.3527 208.903 68.0617L194.347 61.7367L213.043 92.0263C213.45 92.6851 212.83 93.552 212.161 93.261L198.405 87.2832L216.385 116.413C216.792 117.072 216.172 117.939 215.503 117.648L201.748 111.67L219.728 140.799C220.135 141.459 219.515 142.326 218.845 142.035L205.09 136.057L223.07 165.186C223.477 165.846 222.857 166.713 222.187 166.422L208.432 160.445L226.412 189.573C226.819 190.233 226.199 191.1 225.529 190.809L211.774 184.832L229.754 213.961C230.161 214.62 229.541 215.487 228.872 215.196L215.116 209.219L233.096 238.348C233.503 239.007 232.883 239.874 232.214 239.583L218.459 233.605L236.439 262.735C236.846 263.394 236.226 264.26 235.556 263.969L221 257.644L239.697 287.934C240.104 288.593 239.484 289.46 238.814 289.169L225.059 283.191L243.039 312.321C243.446 312.98 242.826 313.847 242.156 313.556L142.132 270.091C142.007 270.036 141.871 270.022 141.737 270.05L34.93 292.101C34.2149 292.249 33.7857 291.273 34.3187 290.712L57.8855 265.883L43.1973 268.916C42.4823 269.064 42.0531 268.088 42.5861 267.527L67.0914 241.71L51.5488 244.919C50.8337 245.067 50.4046 244.091 50.9376 243.53L74.5042 218.701L59.8162 221.734C59.1011 221.882 58.672 220.906 59.2049 220.345L82.7714 195.517L68.0836 198.549C67.3685 198.697 66.9393 197.721 67.4723 197.16L91.0389 172.332L76.3509 175.364C75.6359 175.512 75.2067 174.536 75.7398 173.974L99.3063 149.147L84.6183 152.179C83.9032 152.327 83.4741 151.351 84.0071 150.789L107.574 125.961L92.8857 128.994C92.1706 129.142 91.7414 128.166 92.2745 127.604L115.841 102.776L101.153 105.809C100.438 105.957 100.009 104.981 100.542 104.42L124.109 79.5912L109.42 82.6242C108.705 82.7718 108.276 81.7963 108.809 81.2348L133.314 55.4179L117.772 58.6268C117.057 58.7745 116.628 57.7989 117.161 57.2375L140.727 32.4092L126.039 35.4417C125.324 35.5892 124.895 34.6136 125.428 34.0521L148.995 9.22411L134.307 12.2567C133.592 12.4043 133.162 11.4287 133.695 10.8671L172.441 -29.9517Z"
				fill="#002233" />
		</g>
		<g filter="url(#filter4_f_1047_627)">
			<path fill-rule="evenodd" clip-rule="evenodd"
				d="M268.446 30.1007C268.627 29.9096 268.914 29.9394 269.052 30.1636L285.376 56.6084C285.601 56.9723 285.258 57.451 284.889 57.2903L277.293 53.9897L287.221 70.0747C287.446 70.4384 287.104 70.9172 286.734 70.7566L279.138 67.456L289.067 83.5411C289.292 83.9049 288.949 84.3836 288.58 84.2229L280.542 80.7303L290.866 97.456C291.091 97.8197 290.748 98.2984 290.379 98.1377L282.783 94.8369L292.712 110.922C292.936 111.286 292.594 111.765 292.224 111.604L284.629 108.303L294.557 124.388C294.782 124.752 294.439 125.231 294.07 125.07L286.474 121.769L296.403 137.854C296.627 138.218 296.285 138.697 295.915 138.536L288.32 135.236L298.248 151.321C298.473 151.685 298.131 152.163 297.761 152.003L290.165 148.702L300.094 164.787C300.318 165.151 299.976 165.63 299.606 165.469L292.011 162.169L301.939 178.253C302.164 178.617 301.822 179.096 301.452 178.935L293.856 175.634L303.785 191.72C304.009 192.083 303.667 192.562 303.297 192.401L295.26 188.909L305.584 205.635C305.809 205.998 305.466 206.477 305.097 206.316L297.501 203.015L307.429 219.101C307.654 219.465 307.312 219.943 306.942 219.783L251.709 195.782C251.64 195.752 251.565 195.744 251.491 195.759L192.513 207.936C192.119 208.017 191.882 207.479 192.176 207.168L205.189 193.458L197.079 195.133C196.684 195.215 196.447 194.676 196.741 194.366L210.273 180.11L201.69 181.882C201.295 181.964 201.058 181.425 201.353 181.115L214.366 167.405L206.255 169.079C205.861 169.161 205.624 168.622 205.918 168.312L218.931 154.603L210.821 156.277C210.426 156.358 210.189 155.82 210.483 155.51L223.496 141.8L215.386 143.474C214.991 143.556 214.754 143.017 215.048 142.707L228.061 128.997L219.951 130.672C219.556 130.753 219.319 130.215 219.613 129.904L232.627 116.194L224.516 117.869C224.121 117.951 223.884 117.412 224.179 117.102L237.192 103.392L229.081 105.067C228.686 105.148 228.449 104.61 228.744 104.3L241.757 90.5894L233.646 92.2642C233.252 92.3457 233.015 91.807 233.309 91.497L246.84 77.2411L238.258 79.0131C237.863 79.0946 237.626 78.5559 237.921 78.2459L250.934 64.5359L242.823 66.2104C242.428 66.2919 242.191 65.7531 242.486 65.4431L255.499 51.7333L247.388 53.4079C246.994 53.4894 246.757 52.9507 247.051 52.6406L268.446 30.1007Z"
				fill="#002233" />
		</g>
		<g filter="url(#filter5_f_1047_627)">
			<path fill-rule="evenodd" clip-rule="evenodd"
				d="M-14.4507 -26.7866C-14.2453 -27.1206 -13.8175 -27.165 -13.5472 -26.8805L18.3323 6.67953C18.7711 7.14123 18.4184 7.94377 17.8304 7.82254L5.74893 5.33297L25.1392 25.7458C25.578 26.2074 25.2253 27.0099 24.6373 26.8888L12.5558 24.3993L31.9462 44.8124C32.385 45.274 32.0323 46.0765 31.4442 45.9552L18.6601 43.3209L38.8225 64.5468C39.2613 65.0084 38.9086 65.8109 38.3206 65.6896L26.2391 63.1997L45.6294 83.6131C46.0682 84.0747 45.7155 84.8772 45.1275 84.7559L33.046 82.266L52.4362 102.679C52.8752 103.141 52.5224 103.943 51.9344 103.822L39.8529 101.332L59.2432 121.745C59.6821 122.207 59.3293 123.01 58.7413 122.888L46.6599 120.399L66.0501 140.811C66.489 141.274 66.1362 142.076 65.5482 141.955L53.4668 139.466L72.857 159.878C73.2959 160.34 72.9432 161.142 72.3551 161.021L60.2737 158.532L79.6639 178.945C80.1028 179.406 79.7501 180.209 79.162 180.087L67.0805 177.597L86.4709 198.011C86.9097 198.472 86.557 199.275 85.9689 199.154L73.1842 196.519L93.3472 217.745C93.786 218.207 93.4333 219.009 92.8453 218.888L80.7638 216.398L100.154 236.811C100.593 237.273 100.24 238.076 99.6522 237.954L11.7998 219.852C11.69 219.829 11.5778 219.84 11.4751 219.885L-70.7779 255.665C-71.3286 255.904 -71.8387 255.192 -71.5045 254.65L-56.7253 230.685L-68.0367 235.606C-68.5874 235.846 -69.0975 235.133 -68.7633 234.591L-53.3954 209.673L-65.3649 214.88C-65.9156 215.119 -66.4257 214.406 -66.0915 213.865L-51.3124 189.9L-62.6237 194.821C-63.1744 195.061 -63.6845 194.348 -63.3503 193.806L-48.5712 169.843L-59.8825 174.763C-60.4332 175.002 -60.9433 174.289 -60.6091 173.748L-45.83 149.784L-57.1413 154.704C-57.692 154.944 -58.2021 154.231 -57.8679 153.688L-43.0888 129.726L-54.4001 134.646C-54.9508 134.885 -55.4609 134.172 -55.1267 133.63L-40.3476 109.666L-51.6589 114.587C-52.2096 114.827 -52.7197 114.114 -52.3855 113.571L-37.6064 89.608L-48.9177 94.5288C-49.4684 94.7683 -49.9785 94.0555 -49.6442 93.5136L-34.8651 69.5495L-46.1765 74.4703C-46.7272 74.7098 -47.2373 73.997 -46.903 73.4551L-31.5356 48.537L-43.5047 53.7437C-44.0554 53.9832 -44.5655 53.2704 -44.2313 52.7285L-29.4523 28.7647L-40.7635 33.685C-41.3142 33.9245 -41.8244 33.2116 -41.4901 32.6697L-26.7111 8.7061L-38.0223 13.6266C-38.573 13.8661 -39.0831 13.1532 -38.7489 12.6112L-14.4507 -26.7866Z"
				fill="#002233" />
		</g>
		<g filter="url(#filter6_f_1047_627)">
			<path fill-rule="evenodd" clip-rule="evenodd"
				d="M255.853 104.867C256.222 104.483 256.886 104.484 257.256 104.869L300.811 150.287C301.41 150.912 300.739 151.853 299.856 151.628L281.703 147L308.195 174.625C308.795 175.25 308.124 176.192 307.24 175.967L289.088 171.339L315.58 198.964C316.179 199.589 315.508 200.531 314.625 200.305L295.416 195.408L322.963 224.134C323.563 224.759 322.892 225.7 322.008 225.475L303.856 220.846L330.348 248.473C330.947 249.097 330.276 250.039 329.393 249.814L311.24 245.185L337.732 272.81C338.332 273.436 337.661 274.377 336.777 274.152L318.625 269.524L345.116 297.149C345.716 297.774 345.045 298.716 344.162 298.491L326.009 293.863L352.501 321.488C353.101 322.113 352.43 323.055 351.546 322.829L333.394 318.202L359.885 345.827C360.485 346.452 359.814 347.393 358.931 347.168L340.778 342.54L367.27 370.166C367.869 370.79 367.199 371.732 366.315 371.506L348.163 366.878L374.654 394.504C375.254 395.129 374.583 396.07 373.7 395.845L354.49 390.948L382.038 419.674C382.637 420.298 381.967 421.24 381.083 421.015L362.931 416.386L389.422 444.012C390.022 444.637 389.351 445.578 388.468 445.353L256.468 411.7C256.303 411.658 256.129 411.657 255.964 411.7L123.891 445.062C123.007 445.285 122.338 444.342 122.939 443.718L149.492 416.151L131.329 420.739C130.445 420.963 129.776 420.02 130.377 419.396L157.987 390.731L138.768 395.586C137.884 395.809 137.215 394.866 137.816 394.243L164.369 366.675L146.206 371.264C145.322 371.487 144.653 370.544 145.254 369.921L171.807 342.354L153.644 346.942C152.76 347.165 152.091 346.222 152.692 345.599L179.245 318.032L161.082 322.619C160.198 322.843 159.529 321.9 160.13 321.275L186.683 293.709L168.52 298.297C167.636 298.521 166.968 297.577 167.568 296.953L194.121 269.386L175.959 273.975C175.074 274.198 174.406 273.255 175.006 272.631L201.559 245.064L183.397 249.653C182.512 249.876 181.844 248.933 182.444 248.31L208.997 220.742L190.835 225.33C189.951 225.554 189.282 224.611 189.882 223.987L217.493 195.322L198.274 200.177C197.39 200.401 196.721 199.458 197.321 198.834L223.874 171.267L205.712 175.855C204.828 176.078 204.159 175.135 204.759 174.511L231.312 146.944L213.15 151.533C212.266 151.756 211.597 150.813 212.198 150.189L255.853 104.867Z"
				fill="#001A2E" />
		</g>
		<g filter="url(#filter7_f_1047_627)">
			<path fill-rule="evenodd" clip-rule="evenodd"
				d="M229.359 235.233C229.696 234.922 230.303 234.922 230.641 235.233L270.499 271.858C271.047 272.362 270.435 273.123 269.627 272.942L253.03 269.222L277.273 291.499C277.822 292.003 277.209 292.763 276.402 292.582L259.804 288.863L284.047 311.14C284.596 311.644 283.984 312.404 283.176 312.223L265.613 308.287L290.822 331.451C291.37 331.955 290.758 332.716 289.95 332.535L273.353 328.815L297.596 351.092C298.145 351.596 297.532 352.357 296.725 352.176L280.127 348.455L304.37 370.732C304.919 371.237 304.307 371.998 303.499 371.816L286.902 368.096L311.144 390.373C311.693 390.878 311.081 391.638 310.273 391.457L293.676 387.738L317.919 410.014C318.468 410.518 317.855 411.279 317.047 411.098L300.45 407.378L324.693 429.655C325.242 430.159 324.63 430.92 323.822 430.739L307.225 427.019L331.467 449.296C332.016 449.8 331.404 450.561 330.596 450.38L313.999 446.659L338.242 468.937C338.79 469.441 338.178 470.201 337.37 470.02L319.807 466.084L345.016 489.249C345.565 489.752 344.953 490.513 344.145 490.332L327.548 486.612L351.79 508.889C352.339 509.393 351.727 510.154 350.919 509.973L230.23 482.924C230.08 482.889 229.92 482.889 229.77 482.924L109.081 509.973C108.273 510.154 107.661 509.393 108.209 508.889L132.453 486.612L115.856 490.332C115.048 490.513 114.435 489.752 114.984 489.249L140.192 466.084L122.63 470.02C121.822 470.201 121.21 469.441 121.758 468.937L146.001 446.659L129.404 450.38C128.596 450.561 127.984 449.8 128.532 449.296L152.775 427.019L136.179 430.739C135.371 430.92 134.758 430.159 135.307 429.655L159.55 407.378L142.953 411.098C142.145 411.279 141.533 410.518 142.081 410.014L166.324 387.738L149.727 391.457C148.919 391.638 148.307 390.878 148.855 390.373L173.098 368.096L156.501 371.816C155.693 371.998 155.081 371.237 155.63 370.732L179.873 348.455L163.276 352.176C162.468 352.357 161.856 351.596 162.404 351.092L186.647 328.815L170.05 332.535C169.242 332.716 168.63 331.955 169.178 331.451L194.387 308.287L176.824 312.223C176.016 312.404 175.404 311.644 175.953 311.14L200.196 288.863L183.599 292.582C182.791 292.763 182.179 292.003 182.727 291.499L206.97 269.222L190.373 272.942C189.565 273.123 188.953 272.362 189.501 271.858L229.359 235.233Z"
				fill="#001325" />
		</g>
		<g filter="url(#filter8_f_1047_627)">
			<path fill-rule="evenodd" clip-rule="evenodd"
				d="M146.799 49.0109C147.015 48.6999 147.384 48.7128 147.578 49.0383L170.49 87.4269C170.805 87.9551 170.405 88.7217 169.921 88.5189L159.965 84.352L173.901 107.702C174.216 108.23 173.817 108.996 173.332 108.794L163.377 104.627L177.312 127.977C177.628 128.505 177.228 129.272 176.743 129.069L166.209 124.659L180.699 148.939C181.015 149.467 180.615 150.234 180.131 150.031L170.175 145.864L184.11 169.214C184.426 169.742 184.026 170.509 183.542 170.306L173.586 166.139L187.522 189.488C187.837 190.017 187.438 190.784 186.953 190.581L176.997 186.413L190.933 209.763C191.248 210.292 190.849 211.058 190.364 210.855L180.409 206.689L194.344 230.038C194.66 230.567 194.26 231.333 193.775 231.13L183.82 226.964L197.755 250.313C198.071 250.841 197.671 251.608 197.187 251.405L187.231 247.239L201.167 270.588C201.482 271.116 201.083 271.883 200.598 271.68L190.642 267.513L204.578 290.863C204.893 291.391 204.494 292.158 204.009 291.955L193.474 287.546L207.965 311.825C208.28 312.353 207.881 313.12 207.396 312.917L197.441 308.75L211.376 332.1C211.692 332.628 211.292 333.395 210.808 333.192L138.413 302.892C138.323 302.854 138.226 302.851 138.133 302.883L63.7921 328.029C63.2944 328.197 62.9496 327.405 63.3011 326.9L78.8406 304.585L68.6172 308.044C68.1195 308.212 67.7747 307.419 68.1262 306.915L84.2846 283.711L73.4665 287.37C72.9687 287.539 72.624 286.746 72.9754 286.241L88.5149 263.926L78.2916 267.385C77.7938 267.553 77.4491 266.761 77.8005 266.256L93.3399 243.941L83.1167 247.399C82.6189 247.568 82.2742 246.775 82.6256 246.27L98.165 223.956L87.9417 227.414C87.444 227.582 87.0993 226.789 87.4508 226.284L102.99 203.97L92.7668 207.428C92.2691 207.596 91.9244 206.804 92.2759 206.298L107.815 183.984L97.5919 187.443C97.0942 187.611 96.7495 186.818 97.101 186.313L112.64 163.998L102.417 167.457C101.919 167.625 101.575 166.833 101.926 166.328L117.466 144.013L107.242 147.471C106.744 147.64 106.4 146.847 106.751 146.342L122.909 123.139L112.091 126.798C111.594 126.967 111.249 126.174 111.6 125.669L127.14 103.354L116.916 106.813C116.419 106.981 116.074 106.188 116.425 105.683L131.965 83.3687L121.742 86.8269C121.244 86.9953 120.899 86.2025 121.251 85.6978L146.799 49.0109Z"
				fill="#001A2E" />
		</g>
		<g filter="url(#filter9_f_1047_627)">
			<path fill-rule="evenodd" clip-rule="evenodd"
				d="M54.1033 10.2329C54.3119 9.92237 54.6876 9.92237 54.8967 10.2329L79.5626 46.858C79.9022 47.3619 79.5233 48.1226 79.0234 47.9415L68.7523 44.2217L83.7549 66.4988C84.0945 67.0026 83.7156 67.7633 83.2157 67.5823L72.9446 63.8625L87.9473 86.1399C88.2868 86.6437 87.9079 87.4044 87.408 87.2232L76.5395 83.287L92.1395 106.451C92.4791 106.955 92.1002 107.716 91.6003 107.535L81.3292 103.815L96.3319 126.092C96.6714 126.596 96.2925 127.357 95.7926 127.176L85.5215 123.455L100.524 145.732C100.864 146.237 100.485 146.998 99.9849 146.816L89.7138 143.096L104.716 165.373C105.056 165.878 104.677 166.638 104.177 166.457L93.9061 162.738L108.909 185.014C109.248 185.518 108.869 186.279 108.37 186.098L98.0984 182.378L113.101 204.655C113.441 205.159 113.062 205.92 112.562 205.739L102.291 202.019L117.293 224.296C117.633 224.8 117.254 225.561 116.754 225.38L106.483 221.659L121.486 243.937C121.825 244.441 121.446 245.201 120.946 245.02L110.077 241.084L125.678 264.249C126.018 264.752 125.639 265.513 125.139 265.332L114.868 261.612L129.87 283.889C130.21 284.393 129.831 285.154 129.331 284.973L54.6425 257.924C54.5493 257.889 54.4507 257.889 54.3575 257.924L-20.3309 284.973C-20.8309 285.154 -21.2097 284.393 -20.8704 283.889L-5.86742 261.612L-16.1386 265.332C-16.6386 265.513 -17.0174 264.752 -16.6781 264.249L-1.07761 241.084L-11.9463 245.02C-12.4463 245.201 -12.8251 244.441 -12.4858 243.937L2.51708 221.659L-7.75396 225.38C-8.25399 225.561 -8.63282 224.8 -8.29351 224.296L6.70933 202.019L-3.56166 205.739C-4.06169 205.92 -4.44052 205.159 -4.10121 204.655L10.9017 182.378L0.630648 186.098C0.130611 186.279 -0.248217 185.518 0.0910969 185.014L15.094 162.738L4.82295 166.457C4.32291 166.638 3.94409 165.878 4.2834 165.373L19.2863 143.096L9.01525 146.816C8.51522 146.998 8.13639 146.237 8.4757 145.732L23.4786 123.455L13.2076 127.176C12.7075 127.357 12.3287 126.596 12.668 126.092L27.671 103.815L17.3999 107.535C16.8998 107.716 16.521 106.955 16.8603 106.451L32.4605 83.287L21.5922 87.2232C21.0921 87.4044 20.7133 86.6437 21.0526 86.1399L36.0554 63.8625L25.7845 67.5823C25.2844 67.7633 24.9056 67.0026 25.2449 66.4988L40.2477 44.2217L29.9768 47.9415C29.4767 48.1226 29.0979 47.3619 29.4372 46.858L54.1033 10.2329Z"
				fill="#001325" />
		</g>
		<g filter="url(#filter10_iii_1047_627)">
			<path
				d="M193 149.5C193 173.5 183 208 128 208C73 208 63 173.5 63 149.5C63 128 74.9584 122 75.5 102.5C75.8055 91.5042 73 88 73 86C73 84 74 83 76 83C84.5 83 97 96 101 102.5C121 77.5 118 58 118 51C118 50 118 48 120 48C132 48 161.5 82.5 166 111.5C172.5 107.5 177 98 180 98C185.269 98 193 125.5 193 149.5Z"
				fill="#FF9E2C" shape-rendering="geometricPrecision" />
		</g>
		<g filter="url(#filter11_i_1047_627)">
			<path
				d="M170 162.975C170 178.575 163.538 201 128 201C92.4615 201 86 178.575 86 162.975C86 142.5 91 139 91 130C91 122.85 90.0615 122.25 90.0615 120.95C90.0615 119.65 90.7077 119 92 119C97.4923 119 107.415 128.2 110 132.425C122.923 116.175 124.208 102.5 124.208 97.95C124.208 97.3 124.208 96 125.5 96C133.254 96 149.646 119.425 152.554 138.275C156.754 135.675 161.5 129 164 129C167.404 129 170 147.375 170 162.975Z"
				fill="#FFE55D" />
		</g>
		<g filter="url(#filter12_ii_1047_627)">
			<path
				d="M113 178C113 188 119 193 128 193C137 193 143 188 143 178C143 165.5 132.5 148 128 148C123.5 148 113 165.5 113 178Z"
				fill="#FFFFAF" />
		</g>
	</g>
	<defs>
		<filter id="filter0_f_1047_627" x="-8.80853" y="-39.8866" width="158.549" height="301.312"
			filterUnits="userSpaceOnUse" color-interpolation-filters="sRGB">
			<feFlood flood-opacity="0" result="BackgroundImageFix" />
			<feBlend mode="normal" in="SourceGraphic" in2="BackgroundImageFix" result="shape" />
			<feGaussianBlur stdDeviation="4" result="effect1_foregroundBlur_1047_627" />
		</filter>
		<filter id="filter1_f_1047_627" x="5.0976" y="-47.1634" width="194.885" height="308.14"
			filterUnits="userSpaceOnUse" color-interpolation-filters="sRGB">
			<feFlood flood-opacity="0" result="BackgroundImageFix" />
			<feBlend mode="normal" in="SourceGraphic" in2="BackgroundImageFix" result="shape" />
			<feGaussianBlur stdDeviation="4" result="effect1_foregroundBlur_1047_627" />
		</filter>
		<filter id="filter2_f_1047_627" x="117.36" y="-68.3887" width="253.545" height="310.732"
			filterUnits="userSpaceOnUse" color-interpolation-filters="sRGB">
			<feFlood flood-opacity="0" result="BackgroundImageFix" />
			<feBlend mode="normal" in="SourceGraphic" in2="BackgroundImageFix" result="shape" />
			<feGaussianBlur stdDeviation="4" result="effect1_foregroundBlur_1047_627" />
		</filter>
		<filter id="filter3_f_1047_627" x="28.0803" y="-36.1804" width="221.088" height="355.794"
			filterUnits="userSpaceOnUse" color-interpolation-filters="sRGB">
			<feFlood flood-opacity="0" result="BackgroundImageFix" />
			<feBlend mode="normal" in="SourceGraphic" in2="BackgroundImageFix" result="shape" />
			<feGaussianBlur stdDeviation="3" result="effect1_foregroundBlur_1047_627" />
		</filter>
		<filter id="filter4_f_1047_627" x="186.044" y="23.9745" width="127.457" height="201.84"
			filterUnits="userSpaceOnUse" color-interpolation-filters="sRGB">
			<feFlood flood-opacity="0" result="BackgroundImageFix" />
			<feBlend mode="normal" in="SourceGraphic" in2="BackgroundImageFix" result="shape" />
			<feGaussianBlur stdDeviation="3" result="effect1_foregroundBlur_1047_627" />
		</filter>
		<filter id="filter5_f_1047_627" x="-77.611" y="-33.0684" width="183.962" height="294.781"
			filterUnits="userSpaceOnUse" color-interpolation-filters="sRGB">
			<feFlood flood-opacity="0" result="BackgroundImageFix" />
			<feBlend mode="normal" in="SourceGraphic" in2="BackgroundImageFix" result="shape" />
			<feGaussianBlur stdDeviation="3" result="effect1_foregroundBlur_1047_627" />
		</filter>
		<filter id="filter6_f_1047_627" x="118.709" y="100.579" width="274.942" height="348.808"
			filterUnits="userSpaceOnUse" color-interpolation-filters="sRGB">
			<feFlood flood-opacity="0" result="BackgroundImageFix" />
			<feBlend mode="normal" in="SourceGraphic" in2="BackgroundImageFix" result="shape" />
			<feGaussianBlur stdDeviation="2" result="effect1_foregroundBlur_1047_627" />
		</filter>
		<filter id="filter7_f_1047_627" x="106" y="233" width="248" height="279"
			filterUnits="userSpaceOnUse" color-interpolation-filters="sRGB">
			<feFlood flood-opacity="0" result="BackgroundImageFix" />
			<feBlend mode="normal" in="SourceGraphic" in2="BackgroundImageFix" result="shape" />
			<feGaussianBlur stdDeviation="1" result="effect1_foregroundBlur_1047_627" />
		</filter>
		<filter id="filter8_f_1047_627" x="59.1577" y="44.7856" width="156.331" height="292.44"
			filterUnits="userSpaceOnUse" color-interpolation-filters="sRGB">
			<feFlood flood-opacity="0" result="BackgroundImageFix" />
			<feBlend mode="normal" in="SourceGraphic" in2="BackgroundImageFix" result="shape" />
			<feGaussianBlur stdDeviation="2" result="effect1_foregroundBlur_1047_627" />
		</filter>
		<filter id="filter9_f_1047_627" x="-23" y="8" width="155" height="279"
			filterUnits="userSpaceOnUse" color-interpolation-filters="sRGB">
			<feFlood flood-opacity="0" result="BackgroundImageFix" />
			<feBlend mode="normal" in="SourceGraphic" in2="BackgroundImageFix" result="shape" />
			<feGaussianBlur stdDeviation="1" result="effect1_foregroundBlur_1047_627" />
		</filter>
		<filter id="filter10_iii_1047_627" x="63" y="48" width="130" height="179"
			filterUnits="userSpaceOnUse" color-interpolation-filters="sRGB">
			<feFlood flood-opacity="0" result="BackgroundImageFix" />
			<feBlend mode="normal" in="SourceGraphic" in2="BackgroundImageFix" result="shape" />
			<feColorMatrix in="SourceAlpha" type="matrix"
				values="0 0 0 0 0 0 0 0 0 0 0 0 0 0 0 0 0 0 127 0" result="hardAlpha" />
			<feOffset dy="19" />
			<feGaussianBlur stdDeviation="15" />
			<feComposite in2="hardAlpha" operator="arithmetic" k2="-1" k3="1" />
			<feColorMatrix type="matrix"
				values="0 0 0 0 0.996078 0 0 0 0 0.203922 0 0 0 0 0.054902 0 0 0 1 0" />
			<feBlend mode="normal" in2="shape" result="effect1_innerShadow_1047_627" />
			<feColorMatrix in="SourceAlpha" type="matrix"
				values="0 0 0 0 0 0 0 0 0 0 0 0 0 0 0 0 0 0 127 0" result="hardAlpha" />
			<feOffset />
			<feGaussianBlur stdDeviation="28" />
			<feComposite in2="hardAlpha" operator="arithmetic" k2="-1" k3="1" />
			<feColorMatrix type="matrix"
				values="0 0 0 0 0.980392 0 0 0 0 0.243137 0 0 0 0 0.0941176 0 0 0 1 0" />
			<feBlend mode="normal" in2="effect1_innerShadow_1047_627"
				result="effect2_innerShadow_1047_627" />
			<feColorMatrix in="SourceAlpha" type="matrix"
				values="0 0 0 0 0 0 0 0 0 0 0 0 0 0 0 0 0 0 127 0" result="hardAlpha" />
			<feOffset />
			<feGaussianBlur stdDeviation="4" />
			<feComposite in2="hardAlpha" operator="arithmetic" k2="-1" k3="1" />
			<feColorMatrix type="matrix"
				values="0 0 0 0 1 0 0 0 0 0.0470588 0 0 0 0 0.00784314 0 0 0 1 0" />
			<feBlend mode="normal" in2="effect2_innerShadow_1047_627"
				result="effect3_innerShadow_1047_627" />
		</filter>
		<filter id="filter11_i_1047_627" x="86" y="96" width="84" height="115"
			filterUnits="userSpaceOnUse" color-interpolation-filters="sRGB">
			<feFlood flood-opacity="0" result="BackgroundImageFix" />
			<feBlend mode="normal" in="SourceGraphic" in2="BackgroundImageFix" result="shape" />
			<feColorMatrix in="SourceAlpha" type="matrix"
				values="0 0 0 0 0 0 0 0 0 0 0 0 0 0 0 0 0 0 127 0" result="hardAlpha" />
			<feOffset dy="10" />
			<feGaussianBlur stdDeviation="15.5" />
			<feComposite in2="hardAlpha" operator="arithmetic" k2="-1" k3="1" />
			<feColorMatrix type="matrix"
				values="0 0 0 0 1 0 0 0 0 0.494118 0 0 0 0 0.133333 0 0 0 1 0" />
			<feBlend mode="normal" in2="shape" result="effect1_innerShadow_1047_627" />
		</filter>
		<filter id="filter12_ii_1047_627" x="113" y="148" width="30" height="52"
			filterUnits="userSpaceOnUse" color-interpolation-filters="sRGB">
			<feFlood flood-opacity="0" result="BackgroundImageFix" />
			<feBlend mode="normal" in="SourceGraphic" in2="BackgroundImageFix" result="shape" />
			<feColorMatrix in="SourceAlpha" type="matrix"
				values="0 0 0 0 0 0 0 0 0 0 0 0 0 0 0 0 0 0 127 0" result="hardAlpha" />
			<feOffset dy="7" />
			<feGaussianBlur stdDeviation="8" />
			<feComposite in2="hardAlpha" operator="arithmetic" k2="-1" k3="1" />
			<feColorMatrix type="matrix"
				values="0 0 0 0 1 0 0 0 0 0.941176 0 0 0 0 0.368627 0 0 0 1 0" />
			<feBlend mode="normal" in2="shape" result="effect1_innerShadow_1047_627" />
			<feColorMatrix in="SourceAlpha" type="matrix"
				values="0 0 0 0 0 0 0 0 0 0 0 0 0 0 0 0 0 0 127 0" result="hardAlpha" />
			<feOffset />
			<feGaussianBlur stdDeviation="3.5" />
			<feComposite in2="hardAlpha" operator="arithmetic" k2="-1" k3="1" />
			<feColorMatrix type="matrix"
				values="0 0 0 0 1 0 0 0 0 0.941176 0 0 0 0 0.368627 0 0 0 1 0" />
			<feBlend mode="normal" in2="effect1_innerShadow_1047_627"
				result="effect2_innerShadow_1047_627" />
		</filter>
		<clipPath id="clip0_1047_627">
			<rect width="256" height="256" fill="white" />
		</clipPath>
	</defs>
</svg>
	