<?xml version="1.0" standalone="no"?>
<!DOCTYPE svg PUBLIC "-//W3C//DTD SVG 20010904//EN"
 "http://www.w3.org/TR/2001/REC-SVG-20010904/DTD/svg10.dtd">
<svg version="1.0" xmlns="http://www.w3.org/2000/svg"
 width="700.000000pt" height="700.000000pt" viewBox="0 0 700.000000 700.000000"
 preserveAspectRatio="xMidYMid meet">
<metadata>
Created by potrace 1.14, written by Peter Selinger 2001-2017
</metadata>
<g transform="translate(0.000000,700.000000) scale(0.100000,-0.100000)"
fill="#000000" stroke="none">
<path d="M3096 6976 c-15 -14 -26 -35 -27 -48 -1 -13 -3 -156 -4 -318 -2 -162
-6 -311 -8 -330 -3 -19 -8 -55 -11 -80 -51 -390 -201 -792 -439 -1176 -88
-142 -264 -389 -283 -397 -6 -3 -29 23 -52 56 -60 91 -151 197 -287 332 -280
280 -538 439 -735 450 -73 5 -103 -6 -133 -47 -28 -38 -27 -91 5 -193 83 -258
101 -494 63 -826 -20 -185 -89 -391 -237 -719 -138 -303 -208 -487 -233 -605
-13 -64 -26 -133 -29 -155 -10 -63 -17 -109 -22 -160 -7 -72 -7 -373 0 -436 3
-27 8 -80 11 -117 3 -38 10 -98 16 -135 5 -37 12 -81 14 -98 2 -18 13 -71 24
-118 11 -47 23 -96 25 -108 21 -100 103 -325 168 -458 107 -220 226 -388 398
-560 205 -205 390 -328 720 -477 49 -23 334 -119 371 -127 13 -2 62 -13 109
-24 87 -20 229 -46 310 -57 25 -3 56 -8 70 -10 31 -5 107 -12 220 -22 177 -15
787 -7 890 11 14 3 52 7 85 11 197 19 512 89 710 158 406 142 751 373 1003
673 221 262 419 701 477 1056 3 18 7 44 10 58 5 24 7 41 19 125 7 51 17 135
22 200 6 75 6 460 0 540 -3 39 -8 111 -11 160 -3 50 -8 101 -10 115 -2 14 -7
52 -10 85 -7 72 -9 82 -35 255 -23 156 -23 157 -55 315 -95 475 -236 864 -355
985 -93 95 -128 76 -347 -193 -133 -162 -248 -279 -325 -329 l-25 -16 -22 106
c-30 148 -28 140 -56 233 -14 46 -27 91 -29 99 -49 174 -216 546 -358 795
-461 811 -1148 1507 -1520 1542 -51 4 -59 2 -82 -21z"/>
</g>
</svg>
